<svg width="3566" height="1054" xmlns="http://www.w3.org/2000/svg" xmlns:xlink="http://www.w3.org/1999/xlink" xml:space="preserve" overflow="hidden"><defs><linearGradient x1="574" y1="995" x2="574" y2="1793" gradientUnits="userSpaceOnUse" spreadMethod="reflect" id="fill0"><stop offset="0" stop-color="#70AD47" stop-opacity="1"/><stop offset="0.37" stop-color="#C5E0B4" stop-opacity="1"/><stop offset="0.69" stop-color="#548235" stop-opacity="1"/><stop offset="1" stop-color="#92D050" stop-opacity="1"/></linearGradient><radialGradient cx="109972" cy="75436.5" r="133358" fx="219943" fy="150873" gradientUnits="userSpaceOnUse" spreadMethod="pad" id="fill1" gradientTransform="matrix(0.000316739 -0.000172973 0.000172973 0.000316739 588.316 1519.65)"><stop offset="0" stop-color="#F4B183" stop-opacity="1"/><stop offset="0.43" stop-color="#FF7E79" stop-opacity="1"/><stop offset="0.68" stop-color="#F4B183" stop-opacity="1"/><stop offset="1" stop-color="#FF7E79" stop-opacity="1"/></radialGradient><radialGradient cx="109972" cy="75436.5" r="133358" fx="219943" fy="150873" gradientUnits="userSpaceOnUse" spreadMethod="pad" id="fill2" gradientTransform="matrix(0.000316739 -0.000172973 0.000172973 0.000316739 869.847 1354.79)"><stop offset="0" stop-color="#F4B183" stop-opacity="1"/><stop offset="0.43" stop-color="#FF7E79" stop-opacity="1"/><stop offset="0.68" stop-color="#F4B183" stop-opacity="1"/><stop offset="1" stop-color="#FF7E79" stop-opacity="1"/></radialGradient><radialGradient cx="55418.1" cy="49876.7" r="74558" fx="110837" fy="99753.4" gradientUnits="userSpaceOnUse" spreadMethod="pad" id="fill3" gradientTransform="matrix(0.000360892 0 0 0.000360892 617 1503)"><stop offset="0" stop-color="#F4B183" stop-opacity="1"/><stop offset="0.43" stop-color="#FF7E79" stop-opacity="1"/><stop offset="0.68" stop-color="#F4B183" stop-opacity="1"/><stop offset="1" stop-color="#FF7E79" stop-opacity="1"/></radialGradient><radialGradient cx="65115.7" cy="42949.1" r="78005.4" fx="130232" fy="85899" gradientUnits="userSpaceOnUse" spreadMethod="pad" id="fill4" gradientTransform="matrix(0.000360892 0 0 0.000360892 896 1336)"><stop offset="0" stop-color="#F4B183" stop-opacity="1"/><stop offset="0.43" stop-color="#FF7E79" stop-opacity="1"/><stop offset="0.68" stop-color="#F4B183" stop-opacity="1"/><stop offset="1" stop-color="#FF7E79" stop-opacity="1"/></radialGradient><radialGradient cx="110420" cy="75433.5" r="133727" fx="220840" fy="150867" gradientUnits="userSpaceOnUse" spreadMethod="pad" id="fill5" gradientTransform="matrix(0.000316739 -0.000172973 0.000172973 0.000316739 586.668 1515.61)"><stop offset="0" stop-color="#F4B183" stop-opacity="1"/><stop offset="0.43" stop-color="#FF7E79" stop-opacity="1"/><stop offset="0.68" stop-color="#F4B183" stop-opacity="1"/><stop offset="1" stop-color="#FF7E79" stop-opacity="1"/></radialGradient><radialGradient cx="110420" cy="75433.5" r="133727" fx="220840" fy="150867" gradientUnits="userSpaceOnUse" spreadMethod="pad" id="fill6" gradientTransform="matrix(0.000316739 -0.000172973 0.000172973 0.000316739 869.346 1350.75)"><stop offset="0" stop-color="#F4B183" stop-opacity="1"/><stop offset="0.43" stop-color="#FF7E79" stop-opacity="1"/><stop offset="0.68" stop-color="#F4B183" stop-opacity="1"/><stop offset="1" stop-color="#FF7E79" stop-opacity="1"/></radialGradient><radialGradient cx="56803.6" cy="49876.2" r="75593.2" fx="113608" fy="99752.4" gradientUnits="userSpaceOnUse" spreadMethod="pad" id="fill7" gradientTransform="matrix(0.000360892 0 0 0.000360892 615 1499)"><stop offset="0" stop-color="#F4B183" stop-opacity="1"/><stop offset="0.43" stop-color="#FF7E79" stop-opacity="1"/><stop offset="0.68" stop-color="#F4B183" stop-opacity="1"/><stop offset="1" stop-color="#FF7E79" stop-opacity="1"/></radialGradient><radialGradient cx="66501.2" cy="42949.1" r="79165.7" fx="133003" fy="85899" gradientUnits="userSpaceOnUse" spreadMethod="pad" id="fill8" gradientTransform="matrix(0.000360892 0 0 0.000360892 895 1332)"><stop offset="0" stop-color="#F4B183" stop-opacity="1"/><stop offset="0.43" stop-color="#FF7E79" stop-opacity="1"/><stop offset="0.68" stop-color="#F4B183" stop-opacity="1"/><stop offset="1" stop-color="#FF7E79" stop-opacity="1"/></radialGradient></defs><g transform="translate(-375 -875)"><g><path d="M727.267 1791.41C722.794 1794.27 697.34 1792.36 682.839 1792.55 668.339 1792.74 640.263 1792.55 640.263 1792.55L584.728 1792.55 543.076 1792.55C528.73 1792.36 512.532 1791.6 498.648 1791.41 484.765 1791.22 469.492 1793.12 459.774 1791.41 450.055 1789.69 445.273 1785.1 440.337 1781.09 435.4 1777.08 432.932 1773.07 430.155 1767.35 427.378 1761.62 425.219 1755.51 423.676 1746.72 422.133 1737.94 421.208 1725.53 420.899 1714.64 420.591 1703.76 421.825 1690.58 421.825 1681.41 421.825 1672.25 418.431 1662.32 420.899 1659.64 423.368 1656.97 431.081 1664.23 436.634 1665.37 442.188 1666.52 454.22 1666.52 454.22 1666.52 459.928 1666.9 465.019 1669.38 470.881 1667.66 476.743 1665.95 484.302 1660.6 489.393 1656.21 494.483 1651.81 497.723 1647.04 501.425 1641.31 505.127 1635.58 509.138 1628.52 511.607 1621.83 514.075 1615.15 515.463 1609.42 516.234 1601.21 517.006 1593 517.006 1581.16 516.234 1572.57 515.463 1563.97 513.92 1557.67 511.607 1549.65 509.292 1541.63 506.979 1531.89 502.351 1524.44 497.723 1517 490.01 1510.12 483.839 1504.97 477.668 1499.81 470.418 1496.37 465.327 1493.51 460.237 1490.64 460.391 1492.55 453.295 1487.78 446.199 1483.01 427.533 1475.37 422.751 1464.86 417.968 1454.36 424.602 1441.19 424.602 1424.76 424.602 1408.34 423.059 1383.52 422.751 1366.33 422.442 1349.14 422.905 1335.39 422.751 1321.64 422.596 1307.9 421.825 1300.64 421.825 1283.83 421.825 1267.03 422.596 1238.96 422.751 1220.82 422.905 1202.68 422.751 1174.99 422.751 1174.99L422.751 1140.61C422.751 1130.11 422.442 1123.05 422.751 1111.97 423.059 1100.89 422.751 1085.24 424.602 1074.16 426.453 1063.08 430.155 1054.49 433.858 1045.52 437.56 1036.54 440.337 1027.57 446.816 1020.31 453.295 1013.05 463.168 1006.18 472.732 1001.98 482.296 997.776 494.483 995.676 504.202 995.103 513.92 994.53 523.485 996.44 531.044 998.54 538.603 1000.64 543.231 1003.31 549.555 1007.71 555.88 1012.1 563.593 1017.64 568.993 1024.89 574.392 1032.15 578.557 1042.46 581.951 1051.25 585.345 1060.03 588.122 1068.62 589.356 1077.6 590.59 1086.57 589.047 1096.88 589.356 1105.1 589.664 1113.31 591.207 1119.61 591.207 1126.87 591.207 1134.12 589.973 1138.9 589.356 1148.63 588.738 1158.37 591.978 1173.27 587.504 1185.3 583.031 1197.33 569.61 1209.93 562.514 1220.82 555.417 1231.7 550.635 1239.34 544.928 1250.61 539.22 1261.87 533.512 1276.58 528.267 1288.42 523.022 1300.26 517.469 1306.75 513.458 1321.64 509.447 1336.54 505.745 1352.96 504.202 1377.79 502.659 1402.61 501.888 1445.01 504.202 1470.59 506.516 1496.18 512.841 1515.09 518.086 1531.32 523.331 1547.55 527.959 1554.62 535.672 1567.98 543.385 1581.35 555.572 1602.93 564.365 1611.52 573.158 1620.12 582.722 1616.49 588.43 1619.54 594.138 1622.6 594.601 1627.37 598.611 1629.85 602.622 1632.34 612.495 1634.44 612.495 1634.44 617.74 1636.16 623.448 1638.45 630.081 1640.17 636.715 1641.88 645.97 1643.99 652.295 1644.75 658.62 1645.51 668.03 1644.75 668.03 1644.75 674.663 1644.75 684.536 1645.13 692.095 1644.75 699.654 1644.37 708.139 1642.84 713.384 1642.46 718.628 1642.08 723.874 1640.17 723.565 1642.46 723.257 1644.75 715.389 1650.67 711.533 1656.21 707.676 1661.74 703.202 1669.19 700.426 1675.68 697.649 1682.18 696.415 1687.14 694.872 1695.16 693.329 1703.18 690.861 1714.45 691.17 1723.81 691.478 1733.16 693.638 1742.71 696.723 1751.3 699.808 1759.9 704.899 1768.68 709.681 1775.37 714.464 1782.05 731.741 1788.54 727.267 1791.41Z" fill="url(#fill0)" fill-rule="evenodd"/><path d="M423.358 1464.1C430.509 1465.43 447.298 1484.91 449.474 1489.31 451.651 1493.7 440.458 1489.5 436.416 1490.45 432.375 1491.41 424.913 1493.13 425.224 1495.04 425.535 1496.95 433.463 1500 438.282 1501.91 443.101 1503.82 449.164 1504.2 454.138 1506.5 459.112 1508.79 464.708 1512.99 468.128 1515.66 471.548 1518.34 474.191 1520.06 474.657 1522.54 475.124 1525.02 471.082 1527.51 470.927 1530.56 470.771 1533.62 471.859 1538.58 473.725 1540.87 475.59 1543.17 479.321 1541.64 482.119 1544.31 484.917 1546.99 488.182 1552.91 490.513 1556.92 492.845 1560.93 496.576 1564.75 496.11 1568.38 495.643 1572.01 490.358 1574.49 487.715 1578.69 485.073 1582.89 480.876 1589.39 480.254 1593.59 479.632 1597.79 481.808 1600.84 483.984 1603.9 486.161 1606.96 490.98 1610.59 493.312 1611.92 495.643 1613.26 498.286 1608.48 497.975 1611.92 497.664 1615.36 494.866 1627.01 491.446 1632.55 488.026 1638.09 481.653 1642.1 477.456 1645.15 473.258 1648.21 471.393 1649.93 466.263 1650.88 461.133 1651.84 452.428 1649.55 446.676 1650.88 440.925 1652.22 436.727 1658.33 431.753 1658.91 426.779 1659.48 421.959 1657.38 416.83 1654.32 411.7 1651.27 405.948 1646.87 400.974 1640.57 395.999 1634.27 390.714 1625.29 386.983 1616.51 383.252 1607.72 379.677 1600.46 378.589 1587.86 377.5 1575.25 377.811 1555.01 380.454 1540.87 383.097 1526.74 390.092 1512.99 394.445 1503.06 398.797 1493.13 401.906 1487.02 406.57 1481.29 411.233 1475.56 416.208 1462.76 423.358 1464.1Z" fill="#000000" fill-rule="evenodd" fill-opacity="1"/><path d="M706.741 1664.02C699.954 1668.03 691.16 1665.36 683.602 1665.17 676.043 1664.97 670.026 1664.02 661.388 1662.88 652.749 1661.73 641.179 1660.59 631.769 1658.3 622.359 1656.01 615.725 1653.91 604.927 1649.14 594.128 1644.36 576.542 1636.16 566.978 1629.67 557.414 1623.18 554.02 1618.79 547.541 1610.21 541.062 1601.62 533.04 1587.31 528.103 1578.15 523.167 1568.99 522.396 1565.74 517.922 1555.25 513.448 1544.75 506.198 1529.67 501.262 1515.17 496.325 1500.67 491.08 1483.87 488.303 1468.23 485.527 1452.58 484.601 1436.74 484.601 1421.28 484.601 1405.82 486.26 1393 488.303 1375.48 490.347 1357.96 496.695 1329.04 496.863 1316.14 497.031 1303.24 491.934 1303.42 489.313 1298.09 486.691 1292.77 484.4 1288.3 481.135 1284.16 477.87 1280.03 473.372 1278.4 469.722 1273.28 466.072 1268.16 462.113 1262.04 459.234 1253.44 456.356 1244.84 453.246 1232.36 452.449 1221.67 451.652 1210.99 451.69 1200.92 454.453 1189.33 457.216 1177.74 461.237 1162 469.026 1152.12 476.814 1142.24 490.876 1134.26 501.185 1130.07 511.494 1125.89 522.383 1126.76 530.88 1127.02 539.378 1127.27 545.227 1129.31 552.169 1131.6 559.11 1133.89 566.824 1137.89 572.531 1140.76 578.239 1143.62 580.708 1149.15 586.415 1148.77 592.123 1148.39 599.373 1143.24 606.778 1138.47 614.183 1133.7 621.279 1126.25 630.843 1120.15 640.408 1114.04 653.829 1106.79 664.164 1101.83 674.5 1096.86 682.213 1094 692.857 1090.38 703.501 1086.75 718.979 1082.19 728.03 1080.07 737.08 1077.96 742.995 1080.36 747.16 1077.69 751.325 1075.02 751.118 1069.94 753.02 1064.04 754.922 1058.14 756.105 1049.54 758.574 1042.29 761.042 1035.03 763.202 1027.4 767.83 1020.53 772.458 1013.66 778.011 1006.79 786.341 1001.07 794.672 995.342 807.63 989.044 817.811 986.182 827.993 983.319 837.711 981.983 847.43 983.892 857.148 985.8 868.718 992.861 876.123 997.632 883.528 1002.4 887.076 1007.17 891.858 1012.52 896.64 1017.86 901.114 1022.06 904.816 1029.69 908.518 1037.32 911.758 1048.77 914.072 1058.32 916.386 1067.86 917.928 1078.54 918.7 1086.94 919.471 1095.34 914.689 1104.69 918.7 1108.7 922.711 1112.7 934.589 1109.65 942.765 1110.99 950.941 1112.32 967.756 1116.71 967.756 1116.71L1014.03 1127.02C1030.08 1130.45 1051.21 1135.22 1064.02 1137.32 1076.82 1139.42 1079.29 1137.89 1090.86 1139.61 1102.43 1141.33 1119.86 1144.76 1133.44 1147.63 1147.01 1150.49 1159.66 1153.54 1172.31 1156.79 1184.96 1160.03 1198.69 1163.85 1209.33 1167.09 1219.98 1170.34 1236.18 1176.25 1236.18 1176.25L1270.42 1187.7C1281.84 1191.71 1293.25 1195.72 1304.67 1200.3 1316.08 1204.88 1328.89 1210.41 1338.91 1215.18 1348.94 1219.95 1355.58 1224.15 1364.83 1228.92 1374.09 1233.69 1382.57 1236.55 1394.45 1243.81 1406.33 1251.06 1436.1 1272.43 1436.1 1272.43 1449.21 1281.4 1461.86 1288.84 1473.12 1297.62 1484.39 1306.4 1493.18 1315.37 1503.67 1325.1 1514.16 1334.83 1526.04 1345.33 1536.06 1356.02 1546.09 1366.7 1553.19 1376.05 1563.83 1389.22 1574.48 1402.39 1589.75 1420.14 1599.93 1435.02 1610.11 1449.91 1616.74 1462.31 1624.92 1478.53 1633.1 1494.75 1642.2 1515.17 1648.99 1532.35 1655.77 1549.52 1661.17 1565.74 1665.65 1581.58 1670.12 1597.42 1673.82 1612.88 1675.83 1627.38 1677.83 1641.88 1678.45 1655.24 1677.68 1668.6 1676.91 1681.96 1674.59 1695.13 1671.2 1707.53 1667.81 1719.93 1662.72 1732.91 1657.32 1743.03 1651.92 1753.14 1646.52 1760.2 1638.8 1768.22 1631.09 1776.23 1619.98 1785.2 1611.04 1791.11 1602.09 1797.03 1593.6 1801.42 1585.12 1803.71 1576.64 1806 1560.13 1804.85 1560.13 1804.85 1550.1 1805.24 1536.84 1806 1524.96 1806 1513.08 1806 1500.58 1805.43 1488.86 1804.85 1477.14 1804.28 1468.5 1802.57 1454.61 1802.57 1440.73 1802.57 1405.56 1804.85 1405.56 1804.85L1357.43 1803.71C1344.31 1803.52 1335.83 1806.19 1326.88 1803.71 1317.93 1801.23 1308.52 1796.08 1303.74 1788.83 1298.96 1781.57 1297.42 1770.89 1298.19 1760.2 1298.96 1749.51 1301.58 1735.39 1308.37 1724.71 1315.16 1714.02 1328.73 1702.38 1338.91 1696.08 1349.1 1689.78 1359.28 1687.68 1369.46 1686.92 1379.64 1686.16 1393.06 1690.55 1400 1691.5 1406.95 1692.45 1411.26 1696.08 1411.11 1692.65 1410.96 1689.21 1401.55 1682.72 1399.08 1670.89 1396.61 1659.06 1394.45 1636.73 1396.3 1621.66 1398.15 1606.58 1402.01 1592.84 1410.18 1580.44 1418.36 1568.03 1432.09 1556.39 1445.36 1547.23 1458.62 1538.07 1472.66 1529.86 1489.79 1525.48 1506.91 1521.09 1529.89 1517.27 1548.1 1520.9 1566.3 1524.52 1593.14 1549.52 1599 1547.23 1604.87 1544.94 1588.21 1518.8 1583.27 1507.16 1578.33 1495.51 1575.25 1488.26 1569.39 1477.39 1563.52 1466.51 1555.5 1453.91 1548.1 1441.89 1540.69 1429.87 1535.14 1418.23 1524.96 1405.25 1514.78 1392.27 1499.97 1376.82 1487.01 1364.03 1474.05 1351.25 1459.4 1337.89 1447.21 1328.54 1435.02 1319.19 1424.22 1314.8 1413.89 1307.93 1403.55 1301.06 1397.38 1294.95 1385.19 1287.32 1373.01 1279.68 1355.11 1269.19 1340.77 1262.13 1326.42 1255.07 1299.11 1244.95 1299.11 1244.95 1285.08 1239.04 1273.66 1232.74 1256.54 1226.63 1239.41 1220.52 1213.65 1212.7 1196.38 1208.31 1179.1 1203.92 1165.98 1203.16 1152.87 1200.3 1139.76 1197.43 1129.42 1193.04 1117.7 1191.14 1105.98 1189.23 1084.53 1185.79 1082.53 1188.85 1080.52 1191.9 1098.42 1200.87 1105.67 1209.46 1112.92 1218.04 1118.01 1222.43 1126.03 1240.37 1134.05 1258.31 1147.94 1293.42 1153.8 1317.09 1159.66 1340.75 1160.12 1362.12 1161.2 1382.35 1162.28 1402.58 1162.59 1418.61 1160.28 1438.46 1157.96 1458.3 1152.1 1482.92 1147.32 1501.43 1142.54 1519.94 1138.99 1532.35 1131.58 1549.52 1124.18 1566.7 1112.61 1587.88 1102.89 1604.48 1093.17 1621.08 1083.3 1635.01 1073.27 1649.14 1063.25 1663.26 1055.22 1675.47 1042.73 1689.21 1030.23 1702.95 1010.49 1720.89 998.3 1731.58 986.113 1742.26 981.794 1745.89 969.607 1753.33 957.42 1760.77 941.068 1769.17 925.179 1776.23 909.29 1783.29 889.698 1791.88 874.272 1795.7 858.845 1799.51 846.196 1799.32 832.62 1799.13 819.045 1798.94 804.853 1796.84 792.82 1794.55 780.788 1792.26 770.606 1790.54 760.425 1785.39 750.244 1780.24 738.828 1773.75 731.732 1763.64 724.636 1753.52 718.002 1739.78 717.848 1724.71 717.694 1709.63 722.63 1687.11 730.806 1673.18 738.982 1659.25 753.483 1651.62 766.904 1641.12 780.325 1630.62 796.677 1620.89 811.332 1610.21 825.987 1599.52 839.717 1590.17 854.835 1577 869.952 1563.83 887.076 1547.42 902.039 1531.2 917.003 1514.98 933.201 1497.23 944.616 1479.68 956.032 1462.12 962.511 1444.75 970.533 1425.86 978.554 1406.97 987.81 1385.6 992.747 1366.32 997.683 1347.05 1000.61 1328.92 1000.15 1310.22 999.689 1291.51 994.752 1270.71 989.97 1254.11 985.188 1237.51 978.4 1223.39 971.458 1210.6 964.516 1197.82 958.346 1189.23 948.318 1177.4 938.291 1165.56 923.482 1149.92 911.295 1139.61 899.108 1129.31 890.161 1122.44 875.197 1115.57 860.234 1108.7 834.78 1102.02 821.513 1098.39 808.247 1094.77 808.092 1094.19 795.597 1093.81 783.102 1093.43 760.733 1093.43 746.541 1096.1 732.349 1098.77 721.859 1105.26 710.443 1109.84 699.028 1114.42 688.538 1118.24 678.048 1123.58 667.558 1128.92 659.228 1133.89 647.504 1141.9 635.78 1149.92 618.502 1162.13 607.704 1171.67 596.905 1181.21 591.66 1188.46 582.713 1199.15 573.765 1209.84 561.27 1224.34 554.02 1235.79 546.769 1247.24 544.147 1256.78 539.21 1267.85 534.274 1278.92 528.258 1292.85 524.401 1302.2 520.545 1311.55 518.848 1313.65 516.071 1323.96 513.294 1334.26 509.746 1350.29 507.741 1364.03 505.735 1377.77 504.655 1390.75 504.038 1406.4 503.421 1422.04 502.65 1442.27 504.038 1457.92 505.426 1473.57 508.666 1486.16 512.369 1500.29 516.071 1514.41 521.007 1529.1 526.252 1542.65 531.497 1556.2 537.513 1572.04 543.838 1581.58 550.163 1591.12 556.179 1592.84 564.201 1599.9 572.223 1606.96 582.096 1618.22 591.969 1623.95 601.842 1629.67 614.491 1631.2 623.439 1634.25 632.386 1637.3 634.391 1640.93 645.653 1642.27 656.914 1643.6 677.894 1642.46 691.006 1642.27 704.119 1642.07 721.859 1638.45 724.327 1641.12 726.796 1643.79 713.529 1660.01 706.741 1664.02Z" fill="#000000" fill-rule="evenodd" fill-opacity="1"/><path d="M601.365 1543.55C594.158 1530.35 603.911 1511.13 623.148 1500.63 642.386 1490.12 663.823 1492.3 671.029 1505.5 678.236 1518.7 668.483 1537.91 649.245 1548.42 630.008 1558.92 608.571 1556.74 601.365 1543.55Z" fill="url(#fill1)" fill-rule="evenodd"/><path d="M882.895 1378.68C875.689 1365.48 885.442 1346.27 904.679 1335.76 923.916 1325.26 945.353 1327.44 952.56 1340.64 959.766 1353.83 950.013 1373.05 930.776 1383.55 911.539 1394.06 890.102 1391.88 882.895 1378.68Z" fill="url(#fill2)" fill-rule="evenodd"/><path d="M610.417 1535.72C606.281 1528.14 613.984 1515.96 627.624 1508.51 641.263 1501.07 655.674 1501.17 659.81 1508.74 663.947 1516.32 656.244 1528.5 642.604 1535.95 628.965 1543.4 614.554 1543.29 610.417 1535.72Z" fill="#FFFFFF" fill-rule="evenodd" fill-opacity="0.803922"/><path d="M895.362 1364.98C890.807 1356.63 897.995 1343.93 911.417 1336.6 924.839 1329.27 939.413 1330.09 943.968 1338.43 948.523 1346.77 941.335 1359.48 927.913 1366.81 914.491 1374.14 899.917 1373.32 895.362 1364.98Z" fill="#FFFFFF" fill-rule="evenodd" fill-opacity="0.8"/><path d="M617.012 1536.78C617.474 1534.71 630.845 1528.9 635.455 1525.52 640.066 1522.14 641.142 1520.26 644.677 1516.51 648.212 1512.76 655.282 1503 656.665 1503 658.048 1503 654.821 1512.38 652.976 1516.51 651.132 1520.64 648.98 1524.21 645.599 1527.77 642.218 1531.34 636.224 1535.84 632.689 1537.9 629.154 1539.97 616.551 1538.84 617.012 1536.78Z" fill="url(#fill3)" fill-rule="evenodd"/><path d="M896.071 1366.61C894.845 1365.84 909.719 1362.56 915.392 1359.66 921.066 1356.77 926.28 1353.1 930.113 1349.24 933.946 1345.38 936.247 1338.04 938.393 1336.5 940.54 1334.95 943.147 1337.27 942.994 1339.97 942.84 1342.67 940.847 1348.66 937.473 1352.71 934.1 1356.77 928.12 1361.4 922.753 1364.3 917.386 1367.19 897.298 1367.38 896.071 1366.61Z" fill="url(#fill4)" fill-rule="evenodd"/><path d="M988.022 1768.61C987.251 1772.04 1006.53 1770.71 1016.71 1770.9 1026.89 1771.09 1049.1 1769.76 1049.1 1769.76 1058.51 1769.37 1064.99 1768.61 1073.16 1768.61 1081.34 1768.61 1089.21 1769.76 1098.15 1769.76 1107.1 1769.76 1126.84 1768.61 1126.84 1768.61 1137.18 1768.23 1150.13 1767.28 1160.16 1767.47 1170.18 1767.66 1177.28 1769.57 1187 1769.76 1196.71 1769.95 1208.74 1768.42 1218.46 1768.61 1228.18 1768.8 1236.2 1771.09 1245.3 1770.9 1254.4 1770.71 1268.74 1771.47 1273.06 1767.47 1277.38 1763.47 1270.44 1754.32 1271.21 1746.89 1271.98 1739.45 1274.91 1729.35 1277.69 1722.87 1280.47 1716.39 1284.63 1713.15 1287.87 1708.01 1291.11 1702.86 1293.11 1696.95 1297.13 1692 1301.14 1687.04 1306.07 1681.9 1311.93 1678.28 1317.79 1674.66 1325.97 1673.32 1332.29 1670.27 1338.62 1667.22 1348.64 1666.08 1349.88 1659.98 1351.11 1653.88 1342.78 1643.4 1339.7 1633.68 1336.61 1623.96 1334.61 1610.81 1331.37 1601.66 1328.13 1592.52 1324.27 1586.23 1320.26 1578.8 1316.25 1571.36 1312.24 1564.12 1307.31 1557.07 1302.37 1550.02 1298.05 1543.73 1290.65 1536.49 1283.24 1529.24 1274.3 1518 1262.88 1513.62 1251.47 1509.23 1234.04 1507.71 1222.16 1510.19 1210.29 1512.66 1199.34 1521.24 1191.62 1528.48 1183.91 1535.72 1180.36 1546.21 1175.89 1553.64 1171.42 1561.07 1169.1 1564.88 1164.78 1573.08 1160.47 1581.27 1155.22 1593.09 1149.98 1602.81 1144.73 1612.53 1139.64 1622.44 1133.32 1631.4 1127 1640.35 1118.67 1647.59 1112.03 1656.55 1105.4 1665.51 1100 1676.75 1093.52 1685.14 1087.05 1693.52 1080.41 1699.81 1073.16 1706.86 1065.92 1713.92 1058.67 1720.21 1050.03 1727.45 1041.39 1734.69 1030.59 1743.46 1021.34 1750.32 1012.08 1757.18 988.794 1765.18 988.022 1768.61Z" fill="#000000" fill-rule="evenodd" fill-opacity="1"/><path d="M585.158 1515.16C589.946 1518.99 593.808 1508.67 598.133 1504.84 602.458 1501.02 606.783 1495.67 611.108 1492.23 615.433 1488.79 622.23 1486.49 624.083 1484.2 625.937 1481.91 623.774 1481.14 622.23 1478.47 620.685 1475.79 616.515 1472.73 614.815 1468.15 613.116 1463.56 611.417 1457.25 612.035 1450.94 612.653 1444.64 614.815 1436.23 618.523 1430.3 622.23 1424.38 628.254 1418.07 634.278 1415.39 640.302 1412.72 649.416 1412.72 654.667 1414.25 659.919 1415.77 663.627 1420.74 665.789 1424.57 667.951 1428.39 667.488 1432.98 667.643 1437.18 667.797 1441.39 667.488 1446.17 666.716 1449.8 665.943 1453.43 664.09 1459.54 663.009 1458.97 661.927 1458.4 660.692 1450.18 660.228 1446.36 659.765 1442.53 660.846 1439.28 660.228 1436.03 659.61 1432.79 659.147 1428.96 656.521 1426.86 653.895 1424.76 648.643 1422.85 644.473 1423.42 640.302 1423.99 634.896 1427.63 631.498 1430.3 628.099 1432.98 625.937 1434.7 624.083 1439.48 622.23 1444.25 619.604 1453.43 620.376 1458.97 621.148 1464.51 625.782 1469.29 628.717 1472.73 631.652 1476.17 633.197 1479.04 637.985 1479.61 642.774 1480.19 652.351 1478.28 657.448 1476.17 662.545 1474.07 664.09 1471.2 668.569 1467 673.049 1462.79 680.154 1457.63 684.325 1450.94 688.495 1444.25 692.357 1434.89 693.593 1426.86 694.828 1418.83 692.975 1410.04 691.739 1402.78 690.504 1395.51 691.276 1389.4 686.178 1383.28 681.081 1377.17 669.033 1369.14 661.155 1366.08 653.277 1363.02 646.79 1363.98 638.912 1364.93 631.034 1365.89 621.457 1367.61 613.889 1371.81 606.32 1376.02 599.832 1382.71 593.499 1390.16 587.166 1397.62 580.215 1406.98 575.89 1416.54 571.565 1426.1 568.63 1436.61 567.549 1447.5 566.468 1458.4 566.931 1470.82 569.402 1481.91 571.874 1492.99 580.37 1511.34 585.158 1515.16Z" fill="#000000" fill-rule="evenodd" fill-opacity="1"/><path d="M843.156 1342.37C838.383 1337.4 832.839 1328.61 832.069 1321.73 831.299 1314.85 835.611 1305.3 838.536 1301.1 841.462 1296.89 845.927 1297.85 849.623 1296.51 853.318 1295.17 856.86 1292.88 860.709 1293.07 864.559 1293.26 869.64 1295.36 872.72 1297.66 875.799 1299.95 878.263 1303.01 879.187 1306.83 880.111 1310.65 878.879 1316.38 878.263 1320.59 877.647 1324.79 875.183 1330.91 875.491 1332.05 875.799 1333.2 878.417 1330.33 880.111 1327.47 881.804 1324.6 885.5 1319.82 885.654 1314.85 885.808 1309.89 883.806 1302.43 881.034 1297.66 878.263 1292.88 873.797 1288.48 869.024 1286.19 864.251 1283.9 857.476 1283.32 852.394 1283.9 847.313 1284.47 842.694 1286.57 838.536 1289.63 834.379 1292.69 829.914 1296.89 827.45 1302.24 824.986 1307.59 823.601 1316.19 823.755 1321.73 823.908 1327.28 827.758 1333.2 828.374 1335.49 828.99 1337.79 827.142 1332.82 827.45 1335.49 827.758 1338.17 831.761 1349.63 830.222 1351.54 828.682 1353.45 822.215 1348.87 818.211 1346.96 814.208 1345.05 809.896 1344.28 806.201 1340.08 802.505 1335.87 798.656 1326.51 796.038 1321.73 793.421 1316.96 791.265 1317.72 790.495 1311.41 789.725 1305.11 789.725 1292.88 791.419 1283.9 793.113 1274.92 796.808 1264.41 800.658 1257.53 804.507 1250.65 808.665 1246.25 814.516 1242.62 820.367 1238.99 828.066 1237.08 835.765 1235.74 843.464 1234.41 851.933 1233.26 860.709 1234.6 869.486 1235.93 881.034 1240.52 888.425 1243.77 895.816 1247.02 899.974 1248.93 905.055 1254.09 910.136 1259.25 914.91 1267.46 918.913 1274.73 922.916 1281.99 927.69 1291.16 929.076 1297.66 930.462 1304.15 930.616 1310.08 927.228 1313.71 923.84 1317.34 914.756 1316.19 908.751 1319.44 902.746 1322.69 891.197 1333.2 891.197 1333.2 886.116 1337.21 883.344 1340.46 878.263 1343.52 873.182 1346.58 865.483 1350.78 860.709 1351.54 855.936 1352.31 847.929 1347.34 843.156 1342.37Z" fill="#000000" fill-rule="evenodd" fill-opacity="1"/><path d="M726.741 1420.78C731.73 1425.75 746.073 1426.9 753.868 1425.37 761.663 1423.84 768.835 1417.34 773.512 1411.61 778.189 1405.87 781.463 1397.27 781.93 1390.97 782.398 1384.66 780.527 1377.4 776.318 1373.77 772.109 1370.13 762.91 1368.41 756.674 1369.18 750.438 1369.94 744.358 1373.96 738.901 1378.35 733.445 1382.75 727.365 1390.01 723.935 1395.55 720.505 1401.1 721.752 1415.81 726.741 1420.78Z" fill="#000000" fill-rule="evenodd" fill-opacity="1"/><path d="M713.618 1452.11C717.147 1451.73 721.904 1462.4 725.587 1464.68 729.27 1466.97 732.033 1465.83 735.716 1465.83 739.399 1465.83 743.696 1465.83 747.685 1464.68 751.675 1463.54 756.586 1462.21 759.655 1458.97 762.724 1455.73 763.952 1449.06 766.101 1445.26 768.249 1441.45 768.863 1437.07 772.546 1436.11 776.229 1435.16 783.595 1439.16 788.199 1439.54 792.802 1439.92 796.332 1439.35 800.168 1438.4 804.005 1437.45 807.841 1436.3 811.217 1433.83 814.594 1431.35 818.123 1427.54 820.425 1423.54 822.727 1419.54 823.494 1414.21 825.029 1409.83 826.563 1405.45 826.87 1399.35 829.632 1397.26 832.395 1395.16 840.221 1393.45 841.602 1397.26 842.984 1401.07 840.528 1412.69 837.919 1420.11 835.31 1427.54 832.548 1435.54 825.949 1441.83 819.351 1448.11 806.153 1456.3 798.327 1457.83 790.501 1459.35 783.441 1448.87 778.991 1450.97 774.541 1453.06 776.689 1464.87 771.625 1470.4 766.561 1475.92 757.353 1482.21 748.606 1484.11 739.859 1486.01 726.508 1484.68 719.142 1481.82 711.776 1478.97 706.712 1471.54 704.41 1466.97 702.108 1462.4 710.088 1452.49 713.618 1452.11Z" fill="#000000" fill-rule="evenodd" fill-opacity="1"/><path d="M584.158 1511.17C588.947 1514.99 592.808 1504.67 597.133 1500.84 601.458 1497.02 605.783 1491.67 610.108 1488.23 614.434 1484.79 621.23 1482.49 623.083 1480.2 624.937 1477.91 622.775 1477.14 621.23 1474.47 619.685 1471.79 615.515 1468.73 613.816 1464.15 612.116 1459.56 610.417 1453.25 611.035 1446.94 611.653 1440.64 613.816 1432.23 617.523 1426.3 621.23 1420.38 627.254 1414.07 633.278 1411.39 639.302 1408.72 648.416 1408.72 653.668 1410.25 658.919 1411.77 662.627 1416.74 664.789 1420.57 666.951 1424.39 666.488 1428.98 666.643 1433.18 666.797 1437.39 666.488 1442.17 665.716 1445.8 664.943 1449.43 663.09 1455.54 662.009 1454.97 660.927 1454.4 659.692 1446.18 659.228 1442.36 658.765 1438.53 659.846 1435.28 659.228 1432.03 658.61 1428.79 658.147 1424.96 655.521 1422.86 652.895 1420.76 647.643 1418.85 643.473 1419.42 639.302 1419.99 633.896 1423.63 630.498 1426.3 627.099 1428.98 624.937 1430.7 623.083 1435.48 621.23 1440.25 618.604 1449.43 619.376 1454.97 620.149 1460.51 624.783 1465.29 627.717 1468.73 630.652 1472.17 632.197 1475.04 636.985 1475.61 641.774 1476.19 651.351 1474.28 656.448 1472.17 661.545 1470.07 663.09 1467.2 667.569 1463 672.049 1458.79 679.154 1453.63 683.325 1446.94 687.495 1440.25 691.357 1430.89 692.593 1422.86 693.828 1414.83 691.975 1406.04 690.739 1398.78 689.504 1391.51 690.276 1385.4 685.178 1379.28 680.081 1373.17 668.033 1365.14 660.155 1362.08 652.277 1359.02 645.79 1359.98 637.912 1360.93 630.035 1361.89 620.458 1363.61 612.889 1367.81 605.32 1372.02 598.833 1378.71 592.499 1386.16 586.166 1393.62 579.216 1402.98 574.89 1412.54 570.565 1422.1 567.63 1432.61 566.549 1443.5 565.468 1454.4 565.931 1466.82 568.403 1477.91 570.874 1488.99 579.37 1507.34 584.158 1511.17Z" fill="#000000" fill-rule="evenodd" fill-opacity="1"/><path d="M842.535 1338.37C837.728 1333.4 832.145 1324.61 831.37 1317.73 830.594 1310.85 834.937 1301.3 837.883 1297.1 840.83 1292.89 845.327 1293.85 849.049 1292.51 852.771 1291.17 856.337 1288.88 860.214 1289.07 864.091 1289.26 869.209 1291.36 872.31 1293.66 875.412 1295.95 877.893 1299.01 878.824 1302.83 879.754 1306.65 878.514 1312.38 877.893 1316.59 877.273 1320.79 874.792 1326.91 875.102 1328.05 875.412 1329.2 878.048 1326.33 879.754 1323.47 881.46 1320.6 885.182 1315.82 885.337 1310.85 885.492 1305.89 883.476 1298.43 880.685 1293.66 877.893 1288.88 873.396 1284.48 868.589 1282.19 863.781 1279.9 856.958 1279.32 851.84 1279.9 846.723 1280.47 842.07 1282.57 837.883 1285.63 833.696 1288.69 829.199 1292.89 826.717 1298.24 824.236 1303.59 822.841 1312.19 822.996 1317.73 823.151 1323.27 827.027 1329.2 827.648 1331.49 828.268 1333.78 826.407 1328.82 826.717 1331.49 827.027 1334.17 831.06 1345.63 829.509 1347.54 827.958 1349.45 821.445 1344.87 817.413 1342.96 813.381 1341.05 809.039 1340.28 805.317 1336.08 801.595 1331.87 797.718 1322.51 795.081 1317.73 792.445 1312.96 790.274 1313.72 789.499 1307.41 788.723 1301.11 788.723 1288.88 790.429 1279.9 792.135 1270.92 795.857 1260.41 799.734 1253.53 803.611 1246.65 807.798 1242.25 813.691 1238.62 819.584 1234.99 827.338 1233.08 835.092 1231.74 842.845 1230.41 851.375 1229.26 860.214 1230.6 869.054 1231.93 880.685 1236.52 888.128 1239.77 895.572 1243.02 899.759 1244.93 904.877 1250.09 909.994 1255.25 914.802 1263.46 918.834 1270.73 922.866 1277.99 927.673 1287.16 929.069 1293.66 930.465 1300.15 930.62 1306.08 927.208 1309.71 923.796 1313.34 914.647 1312.19 908.599 1315.44 902.551 1318.69 890.92 1329.2 890.92 1329.2 885.802 1333.21 883.011 1336.46 877.893 1339.52 872.776 1342.58 865.022 1346.78 860.214 1347.54 855.407 1348.31 847.343 1343.34 842.535 1338.37Z" fill="#000000" fill-rule="evenodd" fill-opacity="1"/><path d="M725.741 1415.78C730.73 1420.75 745.073 1421.9 752.868 1420.37 760.663 1418.84 767.834 1412.34 772.511 1406.61 777.189 1400.87 780.463 1392.27 780.93 1385.97 781.398 1379.66 779.527 1372.4 775.318 1368.77 771.109 1365.13 761.91 1363.41 755.674 1364.18 749.438 1364.94 743.358 1368.96 737.901 1373.35 732.445 1377.75 726.365 1385.01 722.935 1390.55 719.505 1396.1 720.752 1410.81 725.741 1415.78Z" fill="#000000" fill-rule="evenodd" fill-opacity="1"/><path d="M711.757 1448.11C715.338 1447.73 720.164 1458.4 723.9 1460.68 727.637 1462.97 730.439 1461.83 734.175 1461.83 737.912 1461.83 742.271 1461.83 746.319 1460.68 750.366 1459.54 755.348 1458.21 758.462 1454.97 761.575 1451.73 762.821 1445.06 765 1441.26 767.18 1437.45 767.803 1433.07 771.539 1432.11 775.276 1431.16 782.748 1435.16 787.419 1435.54 792.089 1435.92 795.67 1435.35 799.562 1434.4 803.454 1433.45 807.346 1432.3 810.771 1429.83 814.196 1427.35 817.777 1423.54 820.112 1419.54 822.448 1415.54 823.226 1410.21 824.783 1405.83 826.34 1401.45 826.651 1395.35 829.453 1393.26 832.255 1391.16 840.195 1389.45 841.596 1393.26 842.998 1397.07 840.507 1408.69 837.86 1416.11 835.213 1423.54 832.411 1431.54 825.717 1437.83 819.023 1444.11 805.634 1452.3 797.694 1453.83 789.754 1455.35 782.593 1444.87 778.078 1446.97 773.563 1449.06 775.742 1460.87 770.605 1466.4 765.468 1471.92 756.126 1478.21 747.253 1480.11 738.379 1482.01 724.834 1480.68 717.362 1477.82 709.889 1474.97 704.751 1467.54 702.416 1462.97 700.081 1458.4 708.176 1448.49 711.757 1448.11Z" fill="#000000" fill-rule="evenodd" fill-opacity="1"/><path d="M599.716 1539.5C592.509 1526.31 602.326 1507.06 621.642 1496.51 640.958 1485.96 662.458 1488.11 669.664 1501.31 676.87 1514.5 667.054 1533.75 647.738 1544.3 628.422 1554.85 606.922 1552.7 599.716 1539.5Z" fill="url(#fill5)" fill-rule="evenodd"/><path d="M882.394 1374.65C875.188 1361.45 885.005 1342.2 904.32 1331.65 923.636 1321.1 945.136 1323.25 952.343 1336.45 959.549 1349.64 949.732 1368.89 930.416 1379.44 911.1 1389.99 889.6 1387.84 882.394 1374.65Z" fill="url(#fill6)" fill-rule="evenodd"/><path d="M608.806 1531.65C604.669 1524.08 612.418 1511.88 626.113 1504.4 639.808 1496.92 654.263 1497 658.4 1504.57 662.537 1512.15 654.788 1524.35 641.093 1531.83 627.398 1539.31 612.942 1539.23 608.806 1531.65Z" fill="#FFFFFF" fill-rule="evenodd" fill-opacity="0.803922"/><path d="M894.912 1360.92C890.357 1352.58 897.589 1339.85 911.066 1332.49 924.543 1325.13 939.161 1325.93 943.716 1334.27 948.271 1342.61 941.038 1355.34 927.561 1362.7 914.085 1370.06 899.467 1369.26 894.912 1360.92Z" fill="#FFFFFF" fill-rule="evenodd" fill-opacity="0.8"/><path d="M615.012 1532.78C615.485 1530.71 629.191 1524.9 633.917 1521.52 638.643 1518.14 639.745 1516.26 643.369 1512.51 646.992 1508.76 654.239 1499 655.657 1499 657.074 1499 653.766 1508.38 651.876 1512.51 649.985 1516.64 647.78 1520.21 644.314 1523.77 640.848 1527.34 634.704 1531.84 631.081 1533.9 627.458 1535.97 614.54 1534.84 615.012 1532.78Z" fill="url(#fill7)" fill-rule="evenodd"/><path d="M895.073 1362.61C893.82 1361.84 909.011 1358.56 914.805 1355.66 920.599 1352.77 925.924 1349.1 929.839 1345.24 933.754 1341.38 936.103 1334.04 938.295 1332.5 940.488 1330.95 943.15 1333.27 942.993 1335.97 942.837 1338.67 940.801 1344.66 937.356 1348.71 933.91 1352.77 927.803 1357.4 922.322 1360.3 916.841 1363.19 896.326 1363.38 895.073 1362.61Z" fill="url(#fill8)" fill-rule="evenodd"/><text fill="#FFA3A0" fill-opacity="1" font-family="Arial,Arial_MSFontService,sans-serif" font-style="normal" font-variant="normal" font-weight="400" font-stretch="normal" font-size="403" text-anchor="start" direction="ltr" writing-mode="lr-tb" unicode-bidi="normal" text-decoration="none" transform="matrix(1 0 0 1 1790.94 1391)">LazyingArt</text><text fill="#000000" fill-opacity="1" font-family="Arial,Arial_MSFontService,sans-serif" font-style="normal" font-variant="normal" font-weight="400" font-stretch="normal" font-size="229" text-anchor="start" direction="ltr" writing-mode="lr-tb" unicode-bidi="normal" text-decoration="none" transform="matrix(1 0 0 1 1790.94 1736)">The Art of Lazying</text></g></g></svg>