<svg width="1481" height="1394" xmlns="http://www.w3.org/2000/svg" xmlns:xlink="http://www.w3.org/1999/xlink" xml:space="preserve" overflow="hidden"><defs><linearGradient x1="1671.5" y1="771" x2="1671.5" y2="1778" gradientUnits="userSpaceOnUse" spreadMethod="reflect" id="fill0"><stop offset="0" stop-color="#70AD47" stop-opacity="1"/><stop offset="0.37" stop-color="#C5E0B4" stop-opacity="1"/><stop offset="0.69" stop-color="#548235" stop-opacity="1"/><stop offset="1" stop-color="#92D050" stop-opacity="1"/></linearGradient><radialGradient cx="111068" cy="95199.5" r="146284" fx="222135" fy="190399" gradientUnits="userSpaceOnUse" spreadMethod="pad" id="fill1" gradientTransform="matrix(0.000316739 -0.000172973 0.000172973 0.000316739 1682.47 1428.47)"><stop offset="0" stop-color="#F4B183" stop-opacity="1"/><stop offset="0.43" stop-color="#FF7E79" stop-opacity="1"/><stop offset="0.68" stop-color="#F4B183" stop-opacity="1"/><stop offset="1" stop-color="#FF7E79" stop-opacity="1"/></radialGradient><radialGradient cx="111068" cy="95199.5" r="146284" fx="222135" fy="190399" gradientUnits="userSpaceOnUse" spreadMethod="pad" id="fill2" gradientTransform="matrix(0.000316739 -0.000172973 0.000172973 0.000316739 1966.81 1220.41)"><stop offset="0" stop-color="#F4B183" stop-opacity="1"/><stop offset="0.43" stop-color="#FF7E79" stop-opacity="1"/><stop offset="0.68" stop-color="#F4B183" stop-opacity="1"/><stop offset="1" stop-color="#FF7E79" stop-opacity="1"/></radialGradient><radialGradient cx="55418.1" cy="63730.8" r="84456" fx="110837" fy="127462" gradientUnits="userSpaceOnUse" spreadMethod="pad" id="fill3" gradientTransform="matrix(0.000360892 0 0 0.000360892 1715 1412)"><stop offset="0" stop-color="#F4B183" stop-opacity="1"/><stop offset="0.43" stop-color="#FF7E79" stop-opacity="1"/><stop offset="0.68" stop-color="#F4B183" stop-opacity="1"/><stop offset="1" stop-color="#FF7E79" stop-opacity="1"/></radialGradient><radialGradient cx="66501.2" cy="52647.2" r="84819.4" fx="133003" fy="105295" gradientUnits="userSpaceOnUse" spreadMethod="pad" id="fill4" gradientTransform="matrix(0.000360892 0 0 0.000360892 1996 1202)"><stop offset="0" stop-color="#F4B183" stop-opacity="1"/><stop offset="0.43" stop-color="#FF7E79" stop-opacity="1"/><stop offset="0.68" stop-color="#F4B183" stop-opacity="1"/><stop offset="1" stop-color="#FF7E79" stop-opacity="1"/></radialGradient><radialGradient cx="110420" cy="94685.5" r="145458" fx="220840" fy="189371" gradientUnits="userSpaceOnUse" spreadMethod="pad" id="fill5" gradientTransform="matrix(0.000316739 -0.000172973 0.000172973 0.000316739 1691.64 1424.64)"><stop offset="0" stop-color="#F4B183" stop-opacity="1"/><stop offset="0.43" stop-color="#FF7E79" stop-opacity="1"/><stop offset="0.68" stop-color="#F4B183" stop-opacity="1"/><stop offset="1" stop-color="#FF7E79" stop-opacity="1"/></radialGradient><radialGradient cx="110420" cy="94685.5" r="145458" fx="220840" fy="189371" gradientUnits="userSpaceOnUse" spreadMethod="pad" id="fill6" gradientTransform="matrix(0.000316739 -0.000172973 0.000172973 0.000316739 1974.32 1217.7)"><stop offset="0" stop-color="#F4B183" stop-opacity="1"/><stop offset="0.43" stop-color="#FF7E79" stop-opacity="1"/><stop offset="0.68" stop-color="#F4B183" stop-opacity="1"/><stop offset="1" stop-color="#FF7E79" stop-opacity="1"/></radialGradient><radialGradient cx="55418.6" cy="63731.3" r="84456.8" fx="110838" fy="127463" gradientUnits="userSpaceOnUse" spreadMethod="pad" id="fill7" gradientTransform="matrix(0.000360892 0 0 0.000360892 1724 1408)"><stop offset="0" stop-color="#F4B183" stop-opacity="1"/><stop offset="0.43" stop-color="#FF7E79" stop-opacity="1"/><stop offset="0.68" stop-color="#F4B183" stop-opacity="1"/><stop offset="1" stop-color="#FF7E79" stop-opacity="1"/></radialGradient><radialGradient cx="66501.7" cy="54032.7" r="85686.7" fx="133004" fy="108066" gradientUnits="userSpaceOnUse" spreadMethod="pad" id="fill8" gradientTransform="matrix(0.000360892 0 0 0.000360892 2003 1199)"><stop offset="0" stop-color="#F4B183" stop-opacity="1"/><stop offset="0.43" stop-color="#FF7E79" stop-opacity="1"/><stop offset="0.68" stop-color="#F4B183" stop-opacity="1"/><stop offset="1" stop-color="#FF7E79" stop-opacity="1"/></radialGradient><radialGradient cx="110420" cy="94685.5" r="145458" fx="220840" fy="189371" gradientUnits="userSpaceOnUse" spreadMethod="pad" id="fill9" gradientTransform="matrix(0.000316739 -0.000172973 0.000172973 0.000316739 1691.64 1424.64)"><stop offset="0" stop-color="#F4B183" stop-opacity="1"/><stop offset="0.43" stop-color="#FF7E79" stop-opacity="1"/><stop offset="0.68" stop-color="#F4B183" stop-opacity="1"/><stop offset="1" stop-color="#FF7E79" stop-opacity="1"/></radialGradient><radialGradient cx="110420" cy="94685.5" r="145458" fx="220840" fy="189371" gradientUnits="userSpaceOnUse" spreadMethod="pad" id="fill10" gradientTransform="matrix(0.000316739 -0.000172973 0.000172973 0.000316739 1974.32 1217.7)"><stop offset="0" stop-color="#F4B183" stop-opacity="1"/><stop offset="0.43" stop-color="#FF7E79" stop-opacity="1"/><stop offset="0.68" stop-color="#F4B183" stop-opacity="1"/><stop offset="1" stop-color="#FF7E79" stop-opacity="1"/></radialGradient><radialGradient cx="55418.6" cy="63731.3" r="84456.8" fx="110838" fy="127463" gradientUnits="userSpaceOnUse" spreadMethod="pad" id="fill11" gradientTransform="matrix(0.000360892 0 0 0.000360892 1724 1408)"><stop offset="0" stop-color="#F4B183" stop-opacity="1"/><stop offset="0.43" stop-color="#FF7E79" stop-opacity="1"/><stop offset="0.68" stop-color="#F4B183" stop-opacity="1"/><stop offset="1" stop-color="#FF7E79" stop-opacity="1"/></radialGradient><radialGradient cx="66501.7" cy="54032.7" r="85686.7" fx="133004" fy="108066" gradientUnits="userSpaceOnUse" spreadMethod="pad" id="fill12" gradientTransform="matrix(0.000360892 0 0 0.000360892 2003 1199)"><stop offset="0" stop-color="#F4B183" stop-opacity="1"/><stop offset="0.43" stop-color="#FF7E79" stop-opacity="1"/><stop offset="0.68" stop-color="#F4B183" stop-opacity="1"/><stop offset="1" stop-color="#FF7E79" stop-opacity="1"/></radialGradient></defs><g transform="translate(-1411 -751)"><g><path d="M1826.26 1775.99C1821.74 1779.6 1796.04 1777.19 1781.4 1777.43 1766.76 1777.68 1738.41 1777.43 1738.41 1777.43L1682.33 1777.43 1640.28 1777.43C1625.79 1777.19 1609.43 1776.23 1595.41 1775.99 1581.4 1775.75 1565.97 1778.16 1556.16 1775.99 1546.35 1773.82 1541.52 1768.04 1536.53 1762.98 1531.55 1757.92 1529.06 1752.86 1526.25 1745.63 1523.45 1738.4 1521.27 1730.69 1519.71 1719.6 1518.15 1708.52 1517.22 1692.85 1516.91 1679.12 1516.6 1665.38 1517.84 1648.76 1517.84 1637.19 1517.84 1625.62 1514.42 1613.09 1516.91 1609.72 1519.4 1606.34 1527.19 1615.5 1532.8 1616.95 1538.4 1618.39 1550.55 1618.39 1550.55 1618.39 1556.32 1618.87 1561.46 1622.01 1567.38 1619.84 1573.3 1617.67 1580.93 1610.92 1586.07 1605.38 1591.21 1599.84 1594.48 1593.81 1598.22 1586.58 1601.96 1579.35 1606.01 1570.44 1608.5 1562 1610.99 1553.57 1612.39 1546.34 1613.17 1535.98 1613.95 1525.62 1613.95 1510.68 1613.17 1499.83 1612.39 1488.99 1610.84 1481.04 1608.5 1470.92 1606.16 1460.8 1603.83 1448.51 1599.15 1439.11 1594.48 1429.71 1586.69 1421.03 1580.46 1414.53 1574.23 1408.02 1566.91 1403.68 1561.77 1400.07 1556.63 1396.46 1556.78 1398.87 1549.62 1392.84 1542.45 1386.82 1523.61 1377.18 1518.78 1363.92 1513.95 1350.67 1520.65 1334.04 1520.65 1313.32 1520.65 1292.6 1519.09 1261.27 1518.78 1239.58 1518.47 1217.89 1518.93 1200.54 1518.78 1183.19 1518.62 1165.84 1517.84 1156.69 1517.84 1135.48 1517.84 1114.28 1518.62 1078.85 1518.78 1055.96 1518.93 1033.07 1518.78 998.127 1518.78 998.127L1518.78 954.752C1518.78 941.498 1518.47 932.582 1518.78 918.606 1519.09 904.629 1518.78 884.869 1520.65 870.893 1522.52 856.916 1526.25 846.073 1529.99 834.747 1533.73 823.421 1536.53 812.095 1543.08 802.938 1549.62 793.781 1559.59 785.106 1569.25 779.805 1578.9 774.503 1591.21 771.853 1601.02 771.13 1610.84 770.407 1620.49 772.817 1628.13 775.467 1635.76 778.118 1640.43 781.492 1646.82 787.034 1653.2 792.577 1660.99 799.565 1666.44 808.722 1671.9 817.879 1676.1 830.891 1679.53 841.976 1682.96 853.061 1685.76 863.905 1687.01 875.23 1688.25 886.556 1686.69 899.569 1687.01 909.931 1687.32 920.292 1688.87 928.245 1688.87 937.401 1688.87 946.558 1687.63 952.583 1687.01 964.872 1686.38 977.162 1689.65 995.958 1685.14 1011.14 1680.62 1026.32 1667.07 1042.23 1659.9 1055.96 1652.74 1069.7 1647.91 1079.33 1642.14 1093.55 1636.38 1107.77 1630.62 1126.32 1625.32 1141.27 1620.03 1156.21 1614.42 1164.4 1610.37 1183.19 1606.32 1201.99 1602.58 1222.71 1601.02 1254.04 1599.46 1285.37 1598.69 1338.86 1601.02 1371.15 1603.36 1403.44 1609.74 1427.3 1615.04 1447.78 1620.34 1468.27 1625.01 1477.18 1632.8 1494.05 1640.59 1510.92 1652.89 1538.15 1661.77 1548.99 1670.65 1559.84 1680.31 1555.26 1686.07 1559.11 1691.83 1562.97 1692.3 1568.99 1696.35 1572.13 1700.4 1575.26 1710.37 1577.91 1710.37 1577.91 1715.67 1580.08 1721.43 1582.97 1728.13 1585.14 1734.83 1587.31 1744.17 1589.96 1750.56 1590.92 1756.94 1591.89 1766.45 1590.92 1766.45 1590.92 1773.14 1590.92 1783.11 1591.4 1790.75 1590.92 1798.38 1590.44 1806.95 1588.51 1812.24 1588.03 1817.54 1587.55 1822.83 1585.14 1822.52 1588.03 1822.21 1590.92 1814.27 1598.39 1810.37 1605.38 1806.48 1612.37 1801.96 1621.77 1799.16 1629.96 1796.35 1638.15 1795.11 1644.42 1793.55 1654.54 1791.99 1664.66 1789.5 1678.88 1789.81 1690.68 1790.12 1702.49 1792.3 1714.54 1795.42 1725.38 1798.53 1736.23 1803.67 1747.31 1808.5 1755.75 1813.33 1764.18 1830.78 1772.37 1826.26 1775.99Z" fill="url(#fill0)" fill-rule="evenodd"/><path d="M1519.36 1363.12C1526.51 1364.81 1543.3 1389.38 1545.47 1394.93 1547.65 1400.47 1536.46 1395.17 1532.42 1396.37 1528.37 1397.58 1520.91 1399.75 1521.22 1402.15 1521.53 1404.56 1529.46 1408.42 1534.28 1410.83 1539.1 1413.24 1545.16 1413.72 1550.14 1416.61 1555.11 1419.5 1560.71 1424.8 1564.13 1428.18 1567.55 1431.55 1570.19 1433.72 1570.66 1436.85 1571.12 1439.98 1567.08 1443.11 1566.93 1446.97 1566.77 1450.82 1567.86 1457.09 1569.72 1459.98 1571.59 1462.87 1575.32 1460.94 1578.12 1464.32 1580.92 1467.69 1584.18 1475.16 1586.51 1480.22 1588.85 1485.28 1592.58 1490.1 1592.11 1494.68 1591.64 1499.25 1586.36 1502.39 1583.72 1507.69 1581.07 1512.99 1576.88 1521.18 1576.25 1526.48 1575.63 1531.78 1577.81 1535.64 1579.98 1539.49 1582.16 1543.35 1586.98 1547.92 1589.31 1549.61 1591.64 1551.3 1594.29 1545.27 1593.97 1549.61 1593.66 1553.95 1590.87 1568.64 1587.45 1575.63 1584.03 1582.62 1577.65 1587.68 1573.46 1591.53 1569.26 1595.39 1567.39 1597.56 1562.26 1598.76 1557.13 1599.97 1548.43 1597.08 1542.68 1598.76 1536.92 1600.45 1532.73 1608.16 1527.75 1608.88 1522.78 1609.6 1517.96 1606.95 1512.83 1603.1 1507.7 1599.24 1501.95 1593.7 1496.97 1585.75 1492 1577.8 1486.71 1566.48 1482.98 1555.39 1479.25 1544.31 1475.68 1535.15 1474.59 1519.25 1473.5 1503.35 1473.81 1477.81 1476.45 1459.98 1479.1 1442.15 1486.09 1424.8 1490.44 1412.27 1494.8 1399.75 1497.91 1392.04 1502.57 1384.81 1507.23 1377.58 1512.21 1361.44 1519.36 1363.12Z" fill="#000000" fill-rule="evenodd" fill-opacity="1"/><path d="M1805.44 1615.76C1798.58 1620.82 1789.7 1617.44 1782.06 1617.2 1774.42 1616.96 1768.34 1615.76 1759.61 1614.31 1750.88 1612.87 1739.18 1611.42 1729.67 1608.53 1720.17 1605.64 1713.46 1602.99 1702.55 1596.97 1691.64 1590.94 1673.86 1580.58 1664.2 1572.39 1654.53 1564.2 1651.1 1558.66 1644.55 1547.82 1638.01 1536.98 1629.9 1518.91 1624.91 1507.34 1619.92 1495.78 1619.14 1491.68 1614.62 1478.43 1610.1 1465.18 1602.77 1446.15 1597.78 1427.84 1592.8 1409.53 1587.49 1388.33 1584.69 1368.58 1581.88 1348.82 1580.95 1328.82 1580.95 1309.31 1580.95 1289.8 1582.62 1273.61 1584.69 1251.49 1586.75 1229.37 1593.17 1192.86 1593.34 1176.57 1593.51 1160.29 1588.36 1160.52 1585.71 1153.79 1583.06 1147.06 1580.74 1141.43 1577.44 1136.21 1574.14 1130.99 1569.6 1128.93 1565.91 1122.47 1562.22 1116 1558.22 1108.28 1555.31 1097.42 1552.4 1086.56 1549.26 1070.8 1548.45 1057.31 1547.65 1043.82 1547.69 1031.11 1550.48 1016.48 1553.27 1001.85 1557.33 981.975 1565.21 969.507 1573.08 957.039 1587.29 946.954 1597.71 941.672 1608.12 936.39 1619.13 937.493 1627.72 937.814 1636.3 938.134 1642.22 940.705 1649.23 943.596 1656.25 946.487 1664.04 951.546 1669.81 955.16 1675.58 958.774 1678.07 965.76 1683.84 965.278 1689.61 964.797 1696.94 958.292 1704.42 952.269 1711.9 946.246 1719.07 936.85 1728.74 929.141 1738.41 921.432 1751.97 912.276 1762.41 906.013 1772.86 899.749 1780.65 896.135 1791.41 891.558 1802.17 886.98 1817.81 881.218 1826.96 878.548 1836.1 875.878 1842.08 878.91 1846.29 875.538 1850.5 872.165 1850.29 865.76 1852.21 858.311 1854.13 850.863 1855.33 840.001 1857.82 830.846 1860.32 821.692 1862.5 812.055 1867.18 803.382 1871.86 794.709 1877.47 786.035 1885.89 778.808 1894.31 771.58 1907.4 763.63 1917.69 760.016 1927.98 756.403 1937.8 754.716 1947.62 757.125 1957.44 759.535 1969.14 768.449 1976.62 774.471 1984.1 780.494 1987.69 786.517 1992.52 793.263 1997.35 800.009 2001.88 805.309 2005.62 814.946 2009.36 824.583 2012.63 839.038 2014.97 851.083 2017.31 863.129 2018.87 876.621 2019.65 887.221 2020.43 897.821 2015.6 909.626 2019.65 914.686 2023.7 919.745 2035.71 915.89 2043.97 917.577 2052.23 919.263 2069.22 924.804 2069.22 924.804L2115.99 937.814C2132.21 942.15 2153.57 948.173 2166.51 950.823 2179.45 953.474 2181.94 951.546 2193.63 953.714 2205.33 955.882 2222.94 960.219 2236.66 963.833 2250.38 967.446 2263.16 971.301 2275.95 975.397 2288.73 979.493 2302.61 984.311 2313.36 988.407 2324.12 992.502 2340.49 999.971 2340.49 999.971L2375.1 1014.43C2386.64 1019.48 2398.17 1024.54 2409.71 1030.33 2421.25 1036.11 2434.19 1043.1 2444.32 1049.12 2454.45 1055.14 2461.16 1060.44 2470.51 1066.46 2479.86 1072.49 2488.44 1076.1 2500.44 1085.26 2512.45 1094.41 2542.54 1121.39 2542.54 1121.39 2555.79 1132.72 2568.57 1142.11 2579.95 1153.19 2591.33 1164.28 2600.22 1175.6 2610.82 1187.89 2621.42 1200.17 2633.43 1213.42 2643.56 1226.92 2653.69 1240.41 2660.86 1252.21 2671.62 1268.84 2682.38 1285.46 2697.81 1307.86 2708.1 1326.66 2718.39 1345.45 2725.09 1361.11 2733.36 1381.58 2741.62 1402.06 2750.82 1427.84 2757.68 1449.52 2764.54 1471.21 2769.99 1491.68 2774.52 1511.68 2779.04 1531.68 2782.78 1551.19 2784.8 1569.5 2786.83 1587.81 2787.46 1604.67 2786.68 1621.54 2785.9 1638.4 2783.56 1655.03 2780.13 1670.69 2776.7 1686.35 2771.55 1702.73 2766.1 1715.5 2760.64 1728.27 2755.18 1737.18 2747.39 1747.3 2739.59 1757.42 2728.37 1768.74 2719.33 1776.21 2710.28 1783.68 2701.71 1789.22 2693.14 1792.11 2684.56 1795 2667.88 1793.55 2667.88 1793.55 2657.75 1794.04 2644.34 1795 2632.33 1795 2620.33 1795 2607.7 1794.28 2595.85 1793.55 2584.01 1792.83 2575.28 1790.66 2561.24 1790.66 2547.21 1790.66 2511.67 1793.55 2511.67 1793.55L2463.03 1792.11C2449.78 1791.87 2441.2 1795.24 2432.16 1792.11 2423.12 1788.98 2413.61 1782.47 2408.77 1773.32 2403.94 1764.16 2402.38 1750.67 2403.16 1737.18 2403.94 1723.69 2406.59 1705.86 2413.45 1692.37 2420.31 1678.88 2434.03 1664.18 2444.32 1656.23 2454.61 1648.28 2464.9 1645.63 2475.19 1644.67 2485.48 1643.7 2499.04 1649.24 2506.06 1650.45 2513.07 1651.65 2517.44 1656.23 2517.28 1651.89 2517.12 1647.56 2507.61 1639.37 2505.12 1624.43 2502.63 1609.49 2500.44 1581.31 2502.31 1562.27 2504.19 1543.24 2508.08 1525.89 2516.35 1510.23 2524.61 1494.58 2538.48 1479.88 2551.89 1468.32 2565.3 1456.75 2579.48 1446.39 2596.79 1440.85 2614.09 1435.31 2637.32 1430.49 2655.72 1435.07 2674.12 1439.65 2701.24 1471.21 2707.17 1468.32 2713.09 1465.42 2696.25 1432.42 2691.26 1417.72 2686.28 1403.03 2683.16 1393.87 2677.23 1380.14 2671.31 1366.41 2663.2 1350.51 2655.72 1335.33 2648.24 1320.15 2642.62 1305.45 2632.33 1289.07 2622.05 1272.69 2607.08 1253.18 2593.98 1237.03 2580.89 1220.89 2566.08 1204.03 2553.76 1192.22 2541.45 1180.42 2530.53 1174.88 2520.09 1166.2 2509.64 1157.53 2503.41 1149.82 2491.09 1140.18 2478.77 1130.55 2460.69 1117.3 2446.19 1108.38 2431.69 1099.47 2404.1 1086.7 2404.1 1086.7 2389.91 1079.23 2378.37 1071.28 2361.07 1063.57 2343.76 1055.86 2317.73 1045.99 2300.27 1040.44 2282.81 1034.9 2269.56 1033.94 2256.3 1030.33 2243.05 1026.71 2232.61 1021.17 2220.76 1018.76 2208.91 1016.35 2187.24 1012.02 2185.21 1015.87 2183.19 1019.73 2201.27 1031.05 2208.6 1041.89 2215.93 1052.73 2221.07 1058.27 2229.18 1080.92 2237.28 1103.57 2251.32 1147.89 2257.24 1177.77 2263.16 1207.64 2263.63 1234.62 2264.72 1260.16 2265.81 1285.7 2266.13 1305.94 2263.79 1330.99 2261.45 1356.05 2255.52 1387.13 2250.69 1410.49 2245.86 1433.86 2242.27 1449.52 2234.79 1471.21 2227.31 1492.89 2215.61 1519.63 2205.79 1540.59 2195.97 1561.55 2185.99 1579.14 2175.86 1596.97 2165.73 1614.79 2157.62 1630.21 2144.99 1647.56 2132.36 1664.9 2112.41 1687.55 2100.09 1701.04 2087.78 1714.53 2083.41 1719.11 2071.1 1728.51 2058.78 1737.9 2042.25 1748.5 2026.2 1757.42 2010.14 1766.33 1990.34 1777.17 1974.75 1781.99 1959.16 1786.81 1946.38 1786.57 1932.66 1786.33 1918.94 1786.09 1904.59 1783.44 1892.43 1780.54 1880.27 1777.65 1869.98 1775.49 1859.7 1768.98 1849.41 1762.48 1837.87 1754.28 1830.7 1741.52 1823.53 1728.75 1816.82 1711.4 1816.67 1692.37 1816.51 1673.34 1821.5 1644.91 1829.76 1627.32 1838.03 1609.73 1852.68 1600.1 1866.24 1586.85 1879.81 1573.6 1896.33 1561.31 1911.14 1547.82 1925.95 1534.33 1939.83 1522.52 1955.11 1505.9 1970.38 1489.28 1987.69 1468.56 2002.81 1448.08 2017.93 1427.6 2034.3 1405.19 2045.84 1383.03 2057.38 1360.87 2063.92 1338.94 2072.03 1315.09 2080.14 1291.24 2089.49 1264.26 2094.48 1239.93 2099.47 1215.59 2102.43 1192.7 2101.96 1169.1 2101.5 1145.49 2096.51 1119.23 2091.67 1098.27 2086.84 1077.31 2079.98 1059.48 2072.97 1043.34 2065.95 1027.19 2059.71 1016.35 2049.58 1001.42 2039.45 986.479 2024.48 966.724 2012.17 953.714 1999.85 940.705 1990.81 932.032 1975.68 923.359 1960.56 914.686 1934.84 906.253 1921.43 901.676 1908.02 897.099 1907.87 896.376 1895.24 895.894 1882.61 895.412 1860.01 895.412 1845.66 898.785 1831.32 902.158 1820.72 910.349 1809.18 916.131 1797.65 921.913 1787.05 926.731 1776.44 933.477 1765.84 940.223 1757.43 946.487 1745.58 956.605 1733.73 966.724 1716.27 982.143 1705.35 994.189 1694.44 1006.23 1689.14 1015.39 1680.1 1028.88 1671.06 1042.37 1658.43 1060.68 1651.1 1075.14 1643.77 1089.59 1641.12 1101.64 1636.14 1115.61 1631.15 1129.58 1625.07 1147.17 1621.17 1158.98 1617.27 1170.78 1615.56 1173.43 1612.75 1186.44 1609.94 1199.45 1606.36 1219.69 1604.33 1237.03 1602.3 1254.38 1601.21 1270.76 1600.59 1290.52 1599.97 1310.27 1599.19 1335.81 1600.59 1355.57 1601.99 1375.32 1605.27 1391.22 1609.01 1409.05 1612.75 1426.88 1617.74 1445.43 1623.04 1462.53 1628.34 1479.64 1634.42 1499.63 1640.81 1511.68 1647.2 1523.73 1653.28 1525.89 1661.39 1534.81 1669.5 1543.72 1679.48 1557.94 1689.45 1565.16 1699.43 1572.39 1712.21 1574.32 1721.26 1578.17 1730.3 1582.03 1732.33 1586.61 1743.71 1588.29 1755.09 1589.98 1776.29 1588.53 1789.54 1588.29 1802.79 1588.05 1820.72 1583.47 1823.21 1586.85 1825.71 1590.22 1812.3 1610.7 1805.44 1615.76Z" fill="#000000" fill-rule="evenodd" fill-opacity="1"/><path d="M1698.94 1458.62C1689.84 1441.97 1698.22 1419.87 1717.65 1409.26 1737.08 1398.65 1760.2 1403.55 1769.3 1420.2 1778.39 1436.85 1770.01 1458.96 1750.58 1469.57 1731.15 1480.18 1708.03 1475.28 1698.94 1458.62Z" fill="url(#fill1)" fill-rule="evenodd"/><path d="M1983.27 1250.57C1974.18 1233.91 1982.56 1211.81 2001.98 1201.2 2021.41 1190.59 2044.54 1195.49 2053.63 1212.14 2062.73 1228.8 2054.35 1250.9 2034.92 1261.51 2015.49 1272.12 1992.37 1267.22 1983.27 1250.57Z" fill="url(#fill2)" fill-rule="evenodd"/><path d="M1708.08 1450.14C1702.86 1440.58 1709.79 1426.73 1723.57 1419.21 1737.35 1411.69 1752.74 1413.34 1757.97 1422.9 1763.19 1432.46 1756.25 1446.31 1742.48 1453.83 1728.7 1461.35 1713.3 1459.7 1708.08 1450.14Z" fill="#FFFFFF" fill-rule="evenodd" fill-opacity="0.803922"/><path d="M1995.86 1234.72C1990.12 1224.2 1996.44 1209.66 2010 1202.26 2023.56 1194.86 2039.21 1197.39 2044.95 1207.91 2050.7 1218.44 2044.37 1232.98 2030.82 1240.38 2017.26 1247.78 2001.61 1245.25 1995.86 1234.72Z" fill="#FFFFFF" fill-rule="evenodd" fill-opacity="0.8"/><path d="M1715.01 1455.16C1715.47 1452.52 1728.84 1445.09 1733.46 1440.77 1738.07 1436.46 1739.14 1434.06 1742.68 1429.26 1746.21 1424.47 1753.28 1412 1754.67 1412 1756.05 1412 1752.82 1423.99 1750.98 1429.26 1749.13 1434.54 1746.98 1439.1 1743.6 1443.65 1740.22 1448.21 1734.22 1453.96 1730.69 1456.6 1727.15 1459.24 1714.55 1457.8 1715.01 1455.16Z" fill="url(#fill3)" fill-rule="evenodd"/><path d="M1996.07 1239.52C1994.82 1238.58 2010.01 1234.56 2015.8 1231.01 2021.6 1227.46 2026.92 1222.96 2030.84 1218.23 2034.75 1213.49 2037.1 1204.5 2039.3 1202.61 2041.49 1200.71 2044.15 1203.55 2043.99 1206.87 2043.84 1210.18 2041.8 1217.52 2038.36 1222.49 2034.91 1227.46 2028.8 1233.14 2023.32 1236.68 2017.84 1240.23 1997.33 1240.47 1996.07 1239.52Z" fill="url(#fill4)" fill-rule="evenodd"/><path d="M2090.02 1747.97C2089.24 1752.32 2108.69 1750.63 2118.95 1750.87 2129.21 1751.11 2151.61 1749.42 2151.61 1749.42 2161.1 1748.94 2167.63 1747.97 2175.87 1747.97 2184.11 1747.97 2192.04 1749.42 2201.06 1749.42 2210.09 1749.42 2229.99 1747.97 2229.99 1747.97 2240.41 1747.49 2253.48 1746.28 2263.58 1746.53 2273.69 1746.77 2280.85 1749.18 2290.65 1749.42 2300.44 1749.66 2312.57 1747.73 2322.37 1747.97 2332.17 1748.22 2340.26 1751.11 2349.43 1750.87 2358.61 1750.63 2373.07 1751.6 2377.43 1746.53 2381.78 1741.45 2374.78 1729.86 2375.56 1720.44 2376.34 1711.03 2379.29 1698.23 2382.09 1690.01 2384.89 1681.8 2389.09 1677.7 2392.36 1671.18 2395.62 1664.66 2397.64 1657.17 2401.69 1650.89 2405.73 1644.61 2410.71 1638.09 2416.62 1633.5 2422.53 1628.92 2430.77 1627.23 2437.15 1623.36 2443.52 1619.5 2453.63 1618.05 2454.88 1610.32 2456.12 1602.59 2447.72 1589.31 2444.61 1576.99 2441.5 1564.68 2439.48 1548.01 2436.21 1536.42 2432.95 1524.83 2429.06 1516.86 2425.02 1507.44 2420.97 1498.02 2416.93 1488.85 2411.95 1479.91 2406.98 1470.98 2402.62 1463.01 2395.16 1453.83 2387.69 1444.65 2378.67 1430.4 2367.16 1424.85 2355.65 1419.3 2338.08 1417.36 2326.1 1420.5 2314.13 1423.64 2303.09 1434.51 2295.31 1443.69 2287.53 1452.86 2283.96 1466.15 2279.45 1475.56 2274.94 1484.98 2272.6 1489.81 2268.25 1500.2 2263.9 1510.58 2258.61 1525.56 2253.32 1537.87 2248.03 1550.19 2242.9 1562.75 2236.52 1574.1 2230.15 1585.45 2221.75 1594.62 2215.06 1605.97 2208.37 1617.32 2202.93 1631.57 2196.4 1642.2 2189.87 1652.82 2183.18 1660.79 2175.87 1669.73 2168.56 1678.66 2161.25 1686.63 2152.54 1695.81 2143.83 1704.99 2132.95 1716.1 2123.62 1724.79 2114.28 1733.48 2090.8 1743.63 2090.02 1747.97Z" fill="#000000" fill-rule="evenodd" fill-opacity="1"/><path d="M1683.3 1427.95C1688.13 1432.77 1692.02 1419.74 1696.38 1414.91 1700.74 1410.08 1705.1 1403.32 1709.46 1398.97 1713.81 1394.63 1720.66 1391.73 1722.53 1388.83 1724.4 1385.94 1722.22 1384.97 1720.66 1381.59 1719.11 1378.21 1714.9 1374.35 1713.19 1368.55 1711.48 1362.76 1709.77 1354.79 1710.39 1346.82 1711.01 1338.86 1713.19 1328.23 1716.93 1320.75 1720.66 1313.26 1726.74 1305.3 1732.81 1301.92 1738.88 1298.54 1748.06 1298.54 1753.36 1300.47 1758.65 1302.4 1762.39 1308.68 1764.57 1313.51 1766.75 1318.33 1766.28 1324.13 1766.44 1329.44 1766.59 1334.75 1766.28 1340.79 1765.5 1345.37 1764.72 1349.96 1762.85 1357.69 1761.76 1356.96 1760.67 1356.24 1759.43 1345.86 1758.96 1341.03 1758.5 1336.2 1759.59 1332.1 1758.96 1327.99 1758.34 1323.89 1757.87 1319.06 1755.23 1316.4 1752.58 1313.75 1747.29 1311.33 1743.08 1312.06 1738.88 1312.78 1733.43 1317.37 1730.01 1320.75 1726.58 1324.13 1724.4 1326.3 1722.53 1332.34 1720.66 1338.37 1718.02 1349.96 1718.8 1356.96 1719.58 1363.97 1724.25 1370 1727.2 1374.35 1730.16 1378.69 1731.72 1382.31 1736.54 1383.04 1741.37 1383.76 1751.02 1381.35 1756.16 1378.69 1761.3 1376.04 1762.85 1372.42 1767.37 1367.1 1771.88 1361.79 1779.05 1355.27 1783.25 1346.82 1787.45 1338.37 1791.34 1326.54 1792.59 1316.4 1793.83 1306.26 1791.97 1295.16 1790.72 1285.98 1789.48 1276.81 1790.25 1269.08 1785.12 1261.36 1779.98 1253.63 1767.84 1243.49 1759.9 1239.63 1751.96 1235.76 1745.42 1236.97 1737.48 1238.18 1729.54 1239.39 1719.89 1241.56 1712.26 1246.87 1704.63 1252.18 1698.09 1260.63 1691.71 1270.05 1685.32 1279.46 1678.32 1291.29 1673.96 1303.37 1669.6 1315.44 1666.64 1328.72 1665.55 1342.48 1664.46 1356.24 1664.93 1371.93 1667.42 1385.94 1669.91 1399.94 1678.48 1423.12 1683.3 1427.95Z" fill="#000000" fill-rule="evenodd" fill-opacity="1"/><path d="M1942.92 1209.84C1938.07 1203.57 1932.45 1192.47 1931.67 1183.78 1930.89 1175.1 1935.26 1163.03 1938.23 1157.72 1941.2 1152.41 1945.73 1153.62 1949.47 1151.93 1953.22 1150.24 1956.82 1147.35 1960.72 1147.59 1964.62 1147.83 1969.78 1150.48 1972.9 1153.38 1976.02 1156.27 1978.52 1160.14 1979.46 1164.96 1980.4 1169.79 1979.15 1177.03 1978.52 1182.33 1977.9 1187.64 1975.4 1195.36 1975.71 1196.81 1976.02 1198.26 1978.68 1194.64 1980.4 1191.02 1982.12 1187.4 1985.86 1181.37 1986.02 1175.1 1986.18 1168.82 1984.15 1159.41 1981.33 1153.38 1978.52 1147.35 1973.99 1141.8 1969.15 1138.9 1964.31 1136.01 1957.44 1135.28 1952.29 1136.01 1947.13 1136.73 1942.45 1139.38 1938.23 1143.24 1934.01 1147.11 1929.48 1152.41 1926.98 1159.17 1924.49 1165.93 1923.08 1176.78 1923.24 1183.78 1923.39 1190.78 1927.3 1198.26 1927.92 1201.16 1928.55 1204.05 1926.67 1197.78 1926.98 1201.16 1927.3 1204.53 1931.36 1219.01 1929.8 1221.42 1928.23 1223.84 1921.67 1218.05 1917.61 1215.63 1913.55 1213.22 1909.18 1212.25 1905.43 1206.95 1901.68 1201.64 1897.78 1189.81 1895.12 1183.78 1892.47 1177.75 1890.28 1178.72 1889.5 1170.75 1888.72 1162.79 1888.72 1147.35 1890.44 1136.01 1892.16 1124.67 1895.91 1111.39 1899.81 1102.71 1903.71 1094.02 1907.93 1088.47 1913.87 1083.89 1919.8 1079.3 1927.61 1076.89 1935.42 1075.2 1943.23 1073.51 1951.82 1072.06 1960.72 1073.75 1969.62 1075.44 1981.33 1081.23 1988.83 1085.33 1996.33 1089.44 2000.54 1091.85 2005.7 1098.36 2010.85 1104.88 2015.69 1115.26 2019.75 1124.42 2023.82 1133.59 2028.66 1145.18 2030.06 1153.38 2031.47 1161.58 2031.62 1169.06 2028.19 1173.65 2024.75 1178.23 2015.54 1176.78 2009.45 1180.89 2003.36 1184.99 1991.64 1198.26 1991.64 1198.26 1986.49 1203.33 1983.68 1207.43 1978.52 1211.29 1973.37 1215.15 1965.56 1220.46 1960.72 1221.42 1955.88 1222.39 1947.76 1216.12 1942.92 1209.84Z" fill="#000000" fill-rule="evenodd" fill-opacity="1"/><path d="M1825.74 1308.41C1830.73 1314.69 1845.07 1316.13 1852.87 1314.2 1860.66 1312.27 1867.83 1304.06 1872.51 1296.82 1877.19 1289.58 1880.46 1278.71 1880.93 1270.75 1881.4 1262.78 1879.53 1253.61 1875.32 1249.02 1871.11 1244.43 1861.91 1242.26 1855.67 1243.23 1849.44 1244.19 1843.36 1249.26 1837.9 1254.81 1832.44 1260.37 1826.36 1269.54 1822.93 1276.54 1819.51 1283.54 1820.75 1302.13 1825.74 1308.41Z" fill="#000000" fill-rule="evenodd" fill-opacity="1"/><path d="M1811.76 1348.34C1815.34 1347.86 1820.16 1361.37 1823.9 1364.27 1827.64 1367.16 1830.44 1365.71 1834.18 1365.71 1837.91 1365.71 1842.27 1365.71 1846.32 1364.27 1850.37 1362.82 1855.35 1361.13 1858.46 1357.03 1861.58 1352.93 1862.82 1344.48 1865 1339.66 1867.18 1334.83 1867.8 1329.28 1871.54 1328.08 1875.28 1326.87 1882.75 1331.94 1887.42 1332.42 1892.09 1332.9 1895.67 1332.18 1899.56 1330.97 1903.45 1329.77 1907.35 1328.32 1910.77 1325.18 1914.2 1322.05 1917.78 1317.22 1920.11 1312.15 1922.45 1307.09 1923.23 1300.33 1924.78 1294.78 1926.34 1289.24 1926.65 1281.52 1929.45 1278.86 1932.26 1276.21 1940.2 1274.04 1941.6 1278.86 1943 1283.69 1940.51 1298.4 1937.86 1307.81 1935.21 1317.22 1932.41 1327.35 1925.72 1335.31 1919.02 1343.28 1905.63 1353.65 1897.69 1355.58 1889.75 1357.51 1882.59 1344.24 1878.08 1346.89 1873.56 1349.55 1875.74 1364.51 1870.6 1371.5 1865.47 1378.5 1856.13 1386.46 1847.25 1388.87 1838.38 1391.29 1824.83 1389.6 1817.36 1385.98 1809.89 1382.36 1804.75 1372.95 1802.42 1367.16 1800.08 1361.37 1808.18 1348.82 1811.76 1348.34Z" fill="#000000" fill-rule="evenodd" fill-opacity="1"/><path d="M2096.02 1741.99C2095.25 1746.31 2114.63 1744.63 2124.87 1744.87 2135.11 1745.11 2157.44 1743.43 2157.44 1743.43 2166.9 1742.95 2173.41 1741.99 2181.63 1741.99 2189.85 1741.99 2197.76 1743.43 2206.76 1743.43 2215.76 1743.43 2235.61 1741.99 2235.61 1741.99 2246 1741.51 2259.03 1740.31 2269.11 1740.55 2279.19 1740.79 2286.32 1743.19 2296.09 1743.43 2305.87 1743.67 2317.96 1741.75 2327.73 1741.99 2337.51 1742.23 2345.57 1745.11 2354.72 1744.87 2363.87 1744.63 2378.3 1745.59 2382.64 1740.55 2386.98 1735.51 2380 1723.99 2380.78 1714.63 2381.55 1705.27 2384.5 1692.54 2387.29 1684.38 2390.08 1676.22 2394.27 1672.14 2397.53 1665.66 2400.78 1659.18 2402.8 1651.74 2406.83 1645.5 2410.87 1639.25 2415.83 1632.77 2421.72 1628.21 2427.62 1623.65 2435.84 1621.97 2442.19 1618.13 2448.55 1614.29 2458.63 1612.85 2459.88 1605.17 2461.12 1597.49 2452.74 1584.28 2449.64 1572.04 2446.54 1559.8 2444.52 1543.24 2441.26 1531.71 2438.01 1520.19 2434.13 1512.27 2430.1 1502.91 2426.06 1493.55 2422.03 1484.43 2417.07 1475.54 2412.11 1466.66 2407.76 1458.74 2400.32 1449.62 2392.87 1440.5 2383.88 1426.34 2372.4 1420.81 2360.92 1415.29 2343.4 1413.37 2331.46 1416.49 2319.51 1419.61 2308.5 1430.42 2300.75 1439.54 2292.99 1448.66 2289.43 1461.86 2284.93 1471.22 2280.43 1480.59 2278.1 1485.39 2273.76 1495.71 2269.42 1506.03 2264.15 1520.91 2258.87 1533.16 2253.6 1545.4 2248.48 1557.88 2242.12 1569.16 2235.76 1580.44 2227.39 1589.57 2220.72 1600.85 2214.05 1612.13 2208.62 1626.29 2202.11 1636.85 2195.59 1647.42 2188.92 1655.34 2181.63 1664.22 2174.35 1673.1 2167.06 1681.02 2158.37 1690.14 2149.69 1699.26 2138.83 1710.31 2129.52 1718.95 2120.22 1727.59 2096.8 1737.67 2096.02 1741.99Z" fill="#000000" fill-rule="evenodd" fill-opacity="1"/><path d="M1692.16 1423.96C1696.95 1428.73 1700.81 1415.83 1705.13 1411.05 1709.46 1406.28 1713.78 1399.59 1718.11 1395.29 1722.43 1390.99 1729.23 1388.12 1731.08 1385.25 1732.94 1382.38 1730.77 1381.43 1729.23 1378.08 1727.69 1374.74 1723.51 1370.92 1721.82 1365.18 1720.12 1359.45 1718.42 1351.56 1719.04 1343.68 1719.65 1335.8 1721.82 1325.28 1725.52 1317.88 1729.23 1310.47 1735.25 1302.59 1741.28 1299.24 1747.3 1295.9 1756.42 1295.9 1761.67 1297.81 1766.92 1299.72 1770.63 1305.93 1772.79 1310.71 1774.95 1315.49 1774.49 1321.22 1774.64 1326.48 1774.8 1331.73 1774.49 1337.71 1773.72 1342.25 1772.94 1346.79 1771.09 1354.43 1770.01 1353.71 1768.93 1353 1767.69 1342.72 1767.23 1337.95 1766.77 1333.17 1767.85 1329.11 1767.23 1325.04 1766.61 1320.98 1766.15 1316.2 1763.52 1313.58 1760.9 1310.95 1755.64 1308.56 1751.47 1309.28 1747.3 1309.99 1741.9 1314.53 1738.5 1317.88 1735.1 1321.22 1732.94 1323.37 1731.08 1329.34 1729.23 1335.32 1726.6 1346.79 1727.38 1353.71 1728.15 1360.64 1732.78 1366.62 1735.72 1370.92 1738.65 1375.22 1740.2 1378.8 1744.99 1379.52 1749.77 1380.23 1759.35 1377.84 1764.45 1375.22 1769.55 1372.59 1771.09 1369 1775.57 1363.75 1780.05 1358.49 1787.15 1352.04 1791.32 1343.68 1795.5 1335.32 1799.36 1323.61 1800.59 1313.58 1801.83 1303.54 1799.97 1292.55 1798.74 1283.47 1797.5 1274.39 1798.28 1266.75 1793.18 1259.1 1788.08 1251.46 1776.03 1241.42 1768.16 1237.6 1760.28 1233.78 1753.79 1234.97 1745.91 1236.17 1738.03 1237.36 1728.46 1239.51 1720.89 1244.77 1713.32 1250.02 1706.83 1258.39 1700.5 1267.7 1694.17 1277.02 1687.22 1288.73 1682.89 1300.67 1678.57 1312.62 1675.63 1325.76 1674.55 1339.38 1673.47 1353 1673.93 1368.53 1676.4 1382.38 1678.87 1396.24 1687.37 1419.18 1692.16 1423.96Z" fill="#000000" fill-rule="evenodd" fill-opacity="1"/><path d="M1950.54 1206.92C1945.73 1200.69 1940.15 1189.67 1939.37 1181.04 1938.59 1172.41 1942.94 1160.43 1945.88 1155.15 1948.83 1149.88 1953.33 1151.08 1957.05 1149.4 1960.77 1147.72 1964.34 1144.85 1968.21 1145.09 1972.09 1145.33 1977.21 1147.96 1980.31 1150.84 1983.41 1153.72 1985.89 1157.55 1986.82 1162.34 1987.75 1167.14 1986.51 1174.33 1985.89 1179.6 1985.27 1184.87 1982.79 1192.54 1983.1 1193.98 1983.41 1195.42 1986.05 1191.82 1987.75 1188.23 1989.46 1184.63 1993.18 1178.64 1993.34 1172.41 1993.49 1166.18 1991.48 1156.83 1988.68 1150.84 1985.89 1144.85 1981.4 1139.34 1976.59 1136.46 1971.78 1133.58 1964.96 1132.86 1959.84 1133.58 1954.72 1134.3 1950.07 1136.94 1945.88 1140.77 1941.7 1144.61 1937.2 1149.88 1934.72 1156.59 1932.24 1163.3 1930.84 1174.09 1931 1181.04 1931.15 1187.99 1935.03 1195.42 1935.65 1198.29 1936.27 1201.17 1934.41 1194.94 1934.72 1198.29 1935.03 1201.65 1939.06 1216.03 1937.51 1218.43 1935.96 1220.82 1929.44 1215.07 1925.41 1212.68 1921.38 1210.28 1917.04 1209.32 1913.32 1204.05 1909.59 1198.77 1905.72 1187.03 1903.08 1181.04 1900.45 1175.05 1898.27 1176.01 1897.5 1168.1 1896.72 1160.19 1896.72 1144.85 1898.43 1133.58 1900.14 1122.32 1903.86 1109.14 1907.73 1100.51 1911.61 1091.88 1915.8 1086.37 1921.69 1081.81 1927.58 1077.26 1935.34 1074.86 1943.09 1073.19 1950.85 1071.51 1959.38 1070.07 1968.21 1071.75 1977.05 1073.43 1988.68 1079.18 1996.13 1083.25 2003.57 1087.33 2007.76 1089.72 2012.88 1096.19 2017.99 1102.67 2022.8 1112.97 2026.83 1122.08 2030.87 1131.19 2035.67 1142.69 2037.07 1150.84 2038.47 1158.99 2038.62 1166.42 2035.21 1170.97 2031.8 1175.53 2022.65 1174.09 2016.6 1178.16 2010.55 1182.24 1998.92 1195.42 1998.92 1195.42 1993.8 1200.45 1991.01 1204.53 1985.89 1208.36 1980.78 1212.2 1973.02 1217.47 1968.21 1218.43 1963.41 1219.39 1955.34 1213.15 1950.54 1206.92Z" fill="#000000" fill-rule="evenodd" fill-opacity="1"/><path d="M1834.66 1304.5C1839.57 1310.69 1853.67 1312.12 1861.34 1310.21 1869 1308.31 1876.05 1300.22 1880.65 1293.07 1885.25 1285.93 1888.47 1275.22 1888.93 1267.36 1889.39 1259.51 1887.55 1250.46 1883.41 1245.94 1879.27 1241.41 1870.23 1239.27 1864.1 1240.22 1857.96 1241.17 1851.99 1246.17 1846.62 1251.65 1841.25 1257.13 1835.28 1266.17 1831.9 1273.08 1828.53 1279.98 1829.76 1298.31 1834.66 1304.5Z" fill="#000000" fill-rule="evenodd" fill-opacity="1"/><path d="M1820.69 1344.71C1824.24 1344.23 1829.03 1357.62 1832.74 1360.49 1836.45 1363.36 1839.24 1361.93 1842.95 1361.93 1846.66 1361.93 1850.98 1361.93 1855 1360.49 1859.02 1359.06 1863.97 1357.38 1867.06 1353.32 1870.15 1349.25 1871.39 1340.88 1873.55 1336.1 1875.71 1331.32 1876.33 1325.82 1880.04 1324.62 1883.75 1323.42 1891.17 1328.45 1895.81 1328.92 1900.45 1329.4 1904 1328.69 1907.87 1327.49 1911.73 1326.29 1915.59 1324.86 1918.99 1321.75 1922.4 1318.64 1925.95 1313.86 1928.27 1308.84 1930.59 1303.81 1931.36 1297.12 1932.91 1291.62 1934.45 1286.12 1934.76 1278.47 1937.54 1275.84 1940.33 1273.21 1948.21 1271.05 1949.6 1275.84 1950.99 1280.62 1948.52 1295.21 1945.89 1304.53 1943.26 1313.86 1940.48 1323.9 1933.83 1331.79 1927.19 1339.69 1913.89 1349.97 1906.01 1351.88 1898.13 1353.79 1891.02 1340.64 1886.53 1343.27 1882.05 1345.9 1884.22 1360.73 1879.12 1367.66 1874.01 1374.6 1864.74 1382.49 1855.93 1384.88 1847.12 1387.27 1833.67 1385.6 1826.25 1382.01 1818.83 1378.43 1813.73 1369.1 1811.41 1363.36 1809.09 1357.62 1817.13 1345.19 1820.69 1344.71Z" fill="#000000" fill-rule="evenodd" fill-opacity="1"/><path d="M1708.02 1454.63C1698.97 1438.06 1707.3 1416.09 1726.61 1405.54 1745.93 1394.99 1768.92 1399.86 1777.97 1416.43 1787.01 1432.99 1778.69 1454.97 1759.37 1465.52 1740.05 1476.07 1717.06 1471.19 1708.02 1454.63Z" fill="url(#fill5)" fill-rule="evenodd"/><path d="M1990.7 1247.69C1981.65 1231.13 1989.98 1209.15 2009.29 1198.6 2028.61 1188.05 2051.6 1192.93 2060.64 1209.49 2069.69 1226.06 2061.36 1248.04 2042.05 1258.58 2022.73 1269.13 1999.74 1264.26 1990.7 1247.69Z" fill="url(#fill6)" fill-rule="evenodd"/><path d="M1717.11 1446.19C1711.91 1436.68 1718.81 1422.91 1732.5 1415.43 1746.2 1407.96 1761.51 1409.6 1766.7 1419.11 1771.89 1428.62 1765 1442.39 1751.31 1449.87 1737.61 1457.35 1722.3 1455.7 1717.11 1446.19Z" fill="#FFFFFF" fill-rule="evenodd" fill-opacity="0.803922"/><path d="M2003.21 1231.94C1997.5 1221.47 2003.79 1207.01 2017.26 1199.65 2030.74 1192.29 2046.3 1194.81 2052.02 1205.28 2057.73 1215.75 2051.44 1230.21 2037.97 1237.57 2024.49 1244.93 2008.93 1242.41 2003.21 1231.94Z" fill="#FFFFFF" fill-rule="evenodd" fill-opacity="0.8"/><path d="M1724.01 1451.16C1724.47 1448.52 1737.84 1441.09 1742.46 1436.77 1747.07 1432.46 1748.14 1430.06 1751.68 1425.26 1755.21 1420.47 1762.28 1408 1763.67 1408 1765.05 1408 1761.82 1419.99 1759.98 1425.26 1758.13 1430.54 1755.98 1435.1 1752.6 1439.65 1749.22 1444.21 1743.22 1449.96 1739.69 1452.6 1736.15 1455.24 1723.55 1453.8 1724.01 1451.16Z" fill="url(#fill7)" fill-rule="evenodd"/><path d="M2003.07 1237.51C2001.82 1236.54 2017.01 1232.41 2022.8 1228.77 2028.6 1225.12 2033.92 1220.51 2037.84 1215.65 2041.75 1210.8 2044.1 1201.57 2046.3 1199.62 2048.49 1197.68 2051.15 1200.59 2050.99 1204 2050.84 1207.4 2048.8 1214.92 2045.36 1220.02 2041.91 1225.12 2035.8 1230.95 2030.32 1234.6 2024.84 1238.24 2004.33 1238.48 2003.07 1237.51Z" fill="url(#fill8)" fill-rule="evenodd"/><path d="M2096.02 1741.99C2095.25 1746.31 2114.63 1744.63 2124.87 1744.87 2135.11 1745.11 2157.44 1743.43 2157.44 1743.43 2166.9 1742.95 2173.41 1741.99 2181.63 1741.99 2189.85 1741.99 2197.76 1743.43 2206.76 1743.43 2215.76 1743.43 2235.61 1741.99 2235.61 1741.99 2246 1741.51 2259.03 1740.31 2269.11 1740.55 2279.19 1740.79 2286.32 1743.19 2296.09 1743.43 2305.87 1743.67 2317.96 1741.75 2327.73 1741.99 2337.51 1742.23 2345.57 1745.11 2354.72 1744.87 2363.87 1744.63 2378.3 1745.59 2382.64 1740.55 2386.98 1735.51 2380 1723.99 2380.78 1714.63 2381.55 1705.27 2384.5 1692.54 2387.29 1684.38 2390.08 1676.22 2394.27 1672.14 2397.53 1665.66 2400.78 1659.18 2402.8 1651.74 2406.83 1645.5 2410.87 1639.25 2415.83 1632.77 2421.72 1628.21 2427.62 1623.65 2435.84 1621.97 2442.19 1618.13 2448.55 1614.29 2458.63 1612.85 2459.88 1605.17 2461.12 1597.49 2452.74 1584.28 2449.64 1572.04 2446.54 1559.8 2444.52 1543.24 2441.26 1531.71 2438.01 1520.19 2434.13 1512.27 2430.1 1502.91 2426.06 1493.55 2422.03 1484.43 2417.07 1475.54 2412.11 1466.66 2407.76 1458.74 2400.32 1449.62 2392.87 1440.5 2383.88 1426.34 2372.4 1420.81 2360.92 1415.29 2343.4 1413.37 2331.46 1416.49 2319.51 1419.61 2308.5 1430.42 2300.75 1439.54 2292.99 1448.66 2289.43 1461.86 2284.93 1471.22 2280.43 1480.59 2278.1 1485.39 2273.76 1495.71 2269.42 1506.03 2264.15 1520.91 2258.87 1533.16 2253.6 1545.4 2248.48 1557.88 2242.12 1569.16 2235.76 1580.44 2227.39 1589.57 2220.72 1600.85 2214.05 1612.13 2208.62 1626.29 2202.11 1636.85 2195.59 1647.42 2188.92 1655.34 2181.63 1664.22 2174.35 1673.1 2167.06 1681.02 2158.37 1690.14 2149.69 1699.26 2138.83 1710.31 2129.52 1718.95 2120.22 1727.59 2096.8 1737.67 2096.02 1741.99Z" fill="#000000" fill-rule="evenodd" fill-opacity="1"/><path d="M1692.16 1423.96C1696.95 1428.73 1700.81 1415.83 1705.13 1411.05 1709.46 1406.28 1713.78 1399.59 1718.11 1395.29 1722.43 1390.99 1729.23 1388.12 1731.08 1385.25 1732.94 1382.38 1730.77 1381.43 1729.23 1378.08 1727.69 1374.74 1723.51 1370.92 1721.82 1365.18 1720.12 1359.45 1718.42 1351.56 1719.04 1343.68 1719.65 1335.8 1721.82 1325.28 1725.52 1317.88 1729.23 1310.47 1735.25 1302.59 1741.28 1299.24 1747.3 1295.9 1756.42 1295.9 1761.67 1297.81 1766.92 1299.72 1770.63 1305.93 1772.79 1310.71 1774.95 1315.49 1774.49 1321.22 1774.64 1326.48 1774.8 1331.73 1774.49 1337.71 1773.72 1342.25 1772.94 1346.79 1771.09 1354.43 1770.01 1353.71 1768.93 1353 1767.69 1342.72 1767.23 1337.95 1766.77 1333.17 1767.85 1329.11 1767.23 1325.04 1766.61 1320.98 1766.15 1316.2 1763.52 1313.58 1760.9 1310.95 1755.64 1308.56 1751.47 1309.28 1747.3 1309.99 1741.9 1314.53 1738.5 1317.88 1735.1 1321.22 1732.94 1323.37 1731.08 1329.34 1729.23 1335.32 1726.6 1346.79 1727.38 1353.71 1728.15 1360.64 1732.78 1366.62 1735.72 1370.92 1738.65 1375.22 1740.2 1378.8 1744.99 1379.52 1749.77 1380.23 1759.35 1377.84 1764.45 1375.22 1769.55 1372.59 1771.09 1369 1775.57 1363.75 1780.05 1358.49 1787.15 1352.04 1791.32 1343.68 1795.5 1335.32 1799.36 1323.61 1800.59 1313.58 1801.83 1303.54 1799.97 1292.55 1798.74 1283.47 1797.5 1274.39 1798.28 1266.75 1793.18 1259.1 1788.08 1251.46 1776.03 1241.42 1768.16 1237.6 1760.28 1233.78 1753.79 1234.97 1745.91 1236.17 1738.03 1237.36 1728.46 1239.51 1720.89 1244.77 1713.32 1250.02 1706.83 1258.39 1700.5 1267.7 1694.17 1277.02 1687.22 1288.73 1682.89 1300.67 1678.57 1312.62 1675.63 1325.76 1674.55 1339.38 1673.47 1353 1673.93 1368.53 1676.4 1382.38 1678.87 1396.24 1687.37 1419.18 1692.16 1423.96Z" fill="#000000" fill-rule="evenodd" fill-opacity="1"/><path d="M1950.54 1206.92C1945.73 1200.69 1940.15 1189.67 1939.37 1181.04 1938.59 1172.41 1942.94 1160.43 1945.88 1155.15 1948.83 1149.88 1953.33 1151.08 1957.05 1149.4 1960.77 1147.72 1964.34 1144.85 1968.21 1145.09 1972.09 1145.33 1977.21 1147.96 1980.31 1150.84 1983.41 1153.72 1985.89 1157.55 1986.82 1162.34 1987.75 1167.14 1986.51 1174.33 1985.89 1179.6 1985.27 1184.87 1982.79 1192.54 1983.1 1193.98 1983.41 1195.42 1986.05 1191.82 1987.75 1188.23 1989.46 1184.63 1993.18 1178.64 1993.34 1172.41 1993.49 1166.18 1991.48 1156.83 1988.68 1150.84 1985.89 1144.85 1981.4 1139.34 1976.59 1136.46 1971.78 1133.58 1964.96 1132.86 1959.84 1133.58 1954.72 1134.3 1950.07 1136.94 1945.88 1140.77 1941.7 1144.61 1937.2 1149.88 1934.72 1156.59 1932.24 1163.3 1930.84 1174.09 1931 1181.04 1931.15 1187.99 1935.03 1195.42 1935.65 1198.29 1936.27 1201.17 1934.41 1194.94 1934.72 1198.29 1935.03 1201.65 1939.06 1216.03 1937.51 1218.43 1935.96 1220.82 1929.44 1215.07 1925.41 1212.68 1921.38 1210.28 1917.04 1209.32 1913.32 1204.05 1909.59 1198.77 1905.72 1187.03 1903.08 1181.04 1900.45 1175.05 1898.27 1176.01 1897.5 1168.1 1896.72 1160.19 1896.72 1144.85 1898.43 1133.58 1900.14 1122.32 1903.86 1109.14 1907.73 1100.51 1911.61 1091.88 1915.8 1086.37 1921.69 1081.81 1927.58 1077.26 1935.34 1074.86 1943.09 1073.19 1950.85 1071.51 1959.38 1070.07 1968.21 1071.75 1977.05 1073.43 1988.68 1079.18 1996.13 1083.25 2003.57 1087.33 2007.76 1089.72 2012.88 1096.19 2017.99 1102.67 2022.8 1112.97 2026.83 1122.08 2030.87 1131.19 2035.67 1142.69 2037.07 1150.84 2038.47 1158.99 2038.62 1166.42 2035.21 1170.97 2031.8 1175.53 2022.65 1174.09 2016.6 1178.16 2010.55 1182.24 1998.92 1195.42 1998.92 1195.42 1993.8 1200.45 1991.01 1204.53 1985.89 1208.36 1980.78 1212.2 1973.02 1217.47 1968.21 1218.43 1963.41 1219.39 1955.34 1213.15 1950.54 1206.92Z" fill="#000000" fill-rule="evenodd" fill-opacity="1"/><path d="M1834.66 1304.5C1839.57 1310.69 1853.67 1312.12 1861.34 1310.21 1869 1308.31 1876.05 1300.22 1880.65 1293.07 1885.25 1285.93 1888.47 1275.22 1888.93 1267.36 1889.39 1259.51 1887.55 1250.46 1883.41 1245.94 1879.27 1241.41 1870.23 1239.27 1864.1 1240.22 1857.96 1241.17 1851.99 1246.17 1846.62 1251.65 1841.25 1257.13 1835.28 1266.17 1831.9 1273.08 1828.53 1279.98 1829.76 1298.31 1834.66 1304.5Z" fill="#000000" fill-rule="evenodd" fill-opacity="1"/><path d="M1820.69 1344.71C1824.24 1344.23 1829.03 1357.62 1832.74 1360.49 1836.45 1363.36 1839.24 1361.93 1842.95 1361.93 1846.66 1361.93 1850.98 1361.93 1855 1360.49 1859.02 1359.06 1863.97 1357.38 1867.06 1353.32 1870.15 1349.25 1871.39 1340.88 1873.55 1336.1 1875.71 1331.32 1876.33 1325.82 1880.04 1324.62 1883.75 1323.42 1891.17 1328.45 1895.81 1328.92 1900.45 1329.4 1904 1328.69 1907.87 1327.49 1911.73 1326.29 1915.59 1324.86 1918.99 1321.75 1922.4 1318.64 1925.95 1313.86 1928.27 1308.84 1930.59 1303.81 1931.36 1297.12 1932.91 1291.62 1934.45 1286.12 1934.76 1278.47 1937.54 1275.84 1940.33 1273.21 1948.21 1271.05 1949.6 1275.84 1950.99 1280.62 1948.52 1295.21 1945.89 1304.53 1943.26 1313.86 1940.48 1323.9 1933.83 1331.79 1927.19 1339.69 1913.89 1349.97 1906.01 1351.88 1898.13 1353.79 1891.02 1340.64 1886.53 1343.27 1882.05 1345.9 1884.22 1360.73 1879.12 1367.66 1874.01 1374.6 1864.74 1382.49 1855.93 1384.88 1847.12 1387.27 1833.67 1385.6 1826.25 1382.01 1818.83 1378.43 1813.73 1369.1 1811.41 1363.36 1809.09 1357.62 1817.13 1345.19 1820.69 1344.71Z" fill="#000000" fill-rule="evenodd" fill-opacity="1"/><path d="M1708.02 1454.63C1698.97 1438.06 1707.3 1416.09 1726.61 1405.54 1745.93 1394.99 1768.92 1399.86 1777.97 1416.43 1787.01 1432.99 1778.69 1454.97 1759.37 1465.52 1740.05 1476.07 1717.06 1471.19 1708.02 1454.63Z" fill="url(#fill9)" fill-rule="evenodd"/><path d="M1990.7 1247.69C1981.65 1231.13 1989.98 1209.15 2009.29 1198.6 2028.61 1188.05 2051.6 1192.93 2060.64 1209.49 2069.69 1226.06 2061.36 1248.04 2042.05 1258.58 2022.73 1269.13 1999.74 1264.26 1990.7 1247.69Z" fill="url(#fill10)" fill-rule="evenodd"/><path d="M1717.11 1446.19C1711.91 1436.68 1718.81 1422.91 1732.5 1415.43 1746.2 1407.96 1761.51 1409.6 1766.7 1419.11 1771.89 1428.62 1765 1442.39 1751.31 1449.87 1737.61 1457.35 1722.3 1455.7 1717.11 1446.19Z" fill="#FFFFFF" fill-rule="evenodd" fill-opacity="0.803922"/><path d="M2003.21 1231.94C1997.5 1221.47 2003.79 1207.01 2017.26 1199.65 2030.74 1192.29 2046.3 1194.81 2052.02 1205.28 2057.73 1215.75 2051.44 1230.21 2037.97 1237.57 2024.49 1244.93 2008.93 1242.41 2003.21 1231.94Z" fill="#FFFFFF" fill-rule="evenodd" fill-opacity="0.8"/><path d="M1724.01 1451.16C1724.47 1448.52 1737.84 1441.09 1742.46 1436.77 1747.07 1432.46 1748.14 1430.06 1751.68 1425.26 1755.21 1420.47 1762.28 1408 1763.67 1408 1765.05 1408 1761.82 1419.99 1759.98 1425.26 1758.13 1430.54 1755.98 1435.1 1752.6 1439.65 1749.22 1444.21 1743.22 1449.96 1739.69 1452.6 1736.15 1455.24 1723.55 1453.8 1724.01 1451.16Z" fill="url(#fill11)" fill-rule="evenodd"/><path d="M2003.07 1237.51C2001.82 1236.54 2017.01 1232.41 2022.8 1228.77 2028.6 1225.12 2033.92 1220.51 2037.84 1215.65 2041.75 1210.8 2044.1 1201.57 2046.3 1199.62 2048.49 1197.68 2051.15 1200.59 2050.99 1204 2050.84 1207.4 2048.8 1214.92 2045.36 1220.02 2041.91 1225.12 2035.8 1230.95 2030.32 1234.6 2024.84 1238.24 2004.33 1238.48 2003.07 1237.51Z" fill="url(#fill12)" fill-rule="evenodd"/><text fill="#000000" fill-opacity="1" font-family="Arial,Arial_MSFontService,sans-serif" font-style="normal" font-variant="normal" font-weight="400" font-stretch="normal" font-size="183" text-anchor="start" direction="ltr" writing-mode="lr-tb" unicode-bidi="normal" text-decoration="none" transform="matrix(1 0 0 1 1526.34 1992)">LazyingArt LLC</text></g></g></svg>